<?xml version="1.0" encoding="utf-8"?>
<!-- Generator: Adobe Illustrator 26.0.1, SVG Export Plug-In . SVG Version: 6.00 Build 0)  -->
<svg version="1.1" id="Capa_1" xmlns="http://www.w3.org/2000/svg" xmlns:xlink="http://www.w3.org/1999/xlink" x="0px" y="0px"
	 viewBox="0 0 336 304" style="enable-background:new 0 0 336 304;" xml:space="preserve">
<style type="text/css">
	.st0{clip-path:url(#SVGID_00000022533729572962231840000004497585370003431356_);}
	.st1{fill:#E8E8E8;}
	.st2{fill:#EE8600;}
	.st3{fill:#FFFFFF;}
	.st4{opacity:0.18;fill:#9B9797;enable-background:new    ;}
	.st5{opacity:0.25;fill:#9B9797;enable-background:new    ;}
	.st6{opacity:0.24;fill:#9B9797;enable-background:new    ;}
	.st7{fill:none;stroke:#000000;stroke-width:3;stroke-miterlimit:10;}
</style>
<g>
	<defs>
		<rect id="SVGID_1_" y="0" width="336" height="304"/>
	</defs>
	<clipPath id="SVGID_00000042706222961233322330000006364313469784418177_">
		<use xlink:href="#SVGID_1_"  style="overflow:visible;"/>
	</clipPath>
	<g style="clip-path:url(#SVGID_00000042706222961233322330000006364313469784418177_);">
		<path class="st1" d="M0.68,249.84c2.93-1.44,4.18-5.25,7.36-6.24c3.27-1.02,6.89,0.99,9.88-1.21c1.3-0.97,2.27-2.57,3.85-3.15
			c1.38-0.5,2.82,0.06,4.15,0.47c1.13,0.36,2.27,0.69,3.4,1.05c4.57,1.41,9.1,2.79,13.67,4.2c5.17,1.57,10.32,3.18,15.5,4.75
			c0.5,0.17,0.72-0.63,0.22-0.8c-9.46-2.9-18.9-5.8-28.36-8.7c-2.21-0.66-4.51-1.68-6.81-1.96c-1.61-0.19-2.88,0.44-4.01,1.49
			c-1.58,1.46-2.77,2.82-5.06,2.93c-1.91,0.11-3.79-0.39-5.7-0.08c-3.93,0.61-5.15,4.89-8.47,6.52
			C-0.21,249.37,0.21,250.09,0.68,249.84z"/>
		<path class="st1" d="M50.4,246.36c1.96,0.5,3.51-1.46,5.29-2.04c2.38-0.8,4.93-0.47,7.08,0.77c0.47,0.28,0.89-0.44,0.42-0.72
			c-1.83-1.08-3.9-1.52-6-1.24c-0.91,0.11-1.77,0.36-2.6,0.72c-1.19,0.52-2.57,2.04-3.96,1.71C50.1,245.42,49.88,246.22,50.4,246.36
			z"/>
		<path class="st1" d="M71.74,244.29c-1.85-1.52-3.62-3.15-5.29-4.89c-0.77-0.8-1.52-1.66-2.24-2.51c-0.42-0.5-0.83-0.99-1.22-1.49
			c-0.28-0.36-0.55-0.72-0.8-1.08c-0.44-0.44-0.44-0.99,0.03-1.6c0.33,0.14,0.86-0.19,0.58-0.58c-1.69-2.26-2.93-4.75-3.74-7.46
			c-0.17,0.17-0.33,0.33-0.5,0.5c0.91,0.25,1.58,0.72,2.08,1.49c0.28,0.44,1,0.06,0.72-0.41c-4.12-7.12-7.5-14.64-10.04-22.45
			c-0.22,0.14-0.47,0.28-0.69,0.41c11.59,11.38,16.85,27.2,26.62,39.93c0.33,0.41,1.05,0,0.72-0.41
			c-9.8-12.79-15.11-28.66-26.76-40.1c-0.28-0.28-0.83,0-0.69,0.41c2.57,7.9,5.95,15.47,10.13,22.64c0.25-0.14,0.47-0.28,0.72-0.41
			c-0.64-0.97-1.47-1.6-2.57-1.88c-0.3-0.08-0.61,0.19-0.5,0.5c0.83,2.76,2.1,5.33,3.82,7.65c0.19-0.19,0.39-0.39,0.58-0.58
			c-0.77-0.36-1.63,0-1.83,0.91c-0.25,1.3,1.33,2.73,2.05,3.65c2.46,3.07,5.26,5.85,8.3,8.34C71.57,245.2,72.15,244.62,71.74,244.29
			z"/>
		<path class="st1" d="M68.83,227.03c-5.09-7.59-9.21-15.74-12.26-24.36c-0.08,0.16-0.19,0.33-0.28,0.5
			c0.94-0.22,1.74,0.14,2.27,0.97c0.28,0.47,0.94,0.06,0.72-0.41c-4.29-9.25-8.66-18.89-8.36-29.3c-0.25,0.08-0.53,0.14-0.77,0.22
			c7.39,15.19,14.42,30.57,21.06,46.09c0.19,0.44,0.91,0.11,0.75-0.33c-1.11-3.31-2.19-6.65-3.29-9.97
			c-0.53-1.63-1.08-3.23-1.6-4.86c-0.36-1.08-1.13-3.42,0.42-4c-0.17-0.05-0.3-0.14-0.47-0.19c1.99,3.89,3.96,7.79,5.95,11.68
			c0.25,0.47,0.97,0.05,0.72-0.41c-2.16-4.23-3.15-8.89-2.96-13.64c-0.28,0.03-0.55,0.08-0.8,0.11
			c5.76,14.28,12.42,28.19,19.92,41.64c0.25,0.47,0.97,0.05,0.72-0.41c-7.47-13.39-14.11-27.23-19.84-41.45
			c-0.17-0.41-0.8-0.39-0.8,0.11c-0.19,4.89,0.86,9.66,3.07,14.06c0.25-0.14,0.47-0.28,0.72-0.41c-1.99-3.89-3.96-7.79-5.95-11.68
			c-0.08-0.14-0.3-0.25-0.47-0.19c-2.77,1.02-1,4.97-0.39,6.82c1.44,4.34,2.85,8.7,4.29,13.03c0.25-0.11,0.5-0.22,0.75-0.33
			c-6.64-15.52-13.67-30.9-21.06-46.09c-0.19-0.39-0.77-0.16-0.77,0.22c-0.33,10.55,4.12,20.35,8.47,29.71
			c0.25-0.14,0.47-0.28,0.72-0.41c-0.72-1.13-1.88-1.63-3.21-1.35c-0.22,0.05-0.36,0.3-0.28,0.5c3.07,8.67,7.22,16.9,12.34,24.55
			C68.41,227.88,69.13,227.47,68.83,227.03z"/>
		<path class="st1" d="M14.15,280.4c9.57-4.61,19.67-9.31,30.6-8.2c5.17,0.52,10.18,2.02,15.33,2.68c2.6,0.33,5.23,0.47,7.83,0.17
			c2.44-0.3,4.73-1.19,7.11-1.71c3.07-0.69,5.87,0.03,8.83,0.86c2.44,0.66,4.84,1.22,7.36,0.64c0.53-0.11,0.3-0.91-0.22-0.8
			c-5.04,1.19-9.77-2.43-14.86-1.71c-2.52,0.36-4.87,1.35-7.36,1.8c-2.63,0.44-5.31,0.39-7.97,0.05
			c-5.23-0.61-10.32-2.15-15.58-2.73c-5.17-0.58-10.29,0.08-15.25,1.52c-5.64,1.66-10.99,4.2-16.24,6.74
			C13.24,279.91,13.68,280.63,14.15,280.4z"/>
		<path class="st1" d="M70.32,303.3c3.24-1.38,6.42-2.9,9.49-4.61c1.6-0.91,3.18-1.85,4.76-2.84c1.41-0.91,2.82-2.21,4.37-2.87
			c1.74-0.72,4.37,0.64,6.12,1.16c1.85,0.58,3.71,1.13,5.53,1.71c3.79,1.16,7.58,2.32,11.35,3.48c0.5,0.17,0.72-0.64,0.22-0.8
			c-4.04-1.24-8.11-2.48-12.15-3.73c-1.94-0.61-3.87-1.19-5.81-1.79c-1.49-0.47-3.38-1.44-4.95-1.05c-1.47,0.36-2.79,1.63-4.04,2.46
			c-1.6,1.05-3.27,2.07-4.93,3.04c-3.35,1.91-6.81,3.62-10.38,5.11C69.41,302.77,69.85,303.49,70.32,303.3z"/>
		<path class="st1" d="M104.75,304.15c2.1-1.05,4.21-2.13,6.31-3.18c1.94-0.99,4.01-2.32,6.23-2.51c2.24-0.22,3.99,1.24,5.92,2.1
			c1.63,0.72,3.4,1.13,5.17,1.24c4.15,0.22,8.02-1.85,12.15-1.63c3.29,0.19,6.61,2.9,9.85,1.19c0.47-0.25,0.06-0.97-0.41-0.72
			c-2.02,1.08-4.21,0.03-6.2-0.61c-1.71-0.55-3.38-0.8-5.17-0.61c-4.26,0.44-8.16,2.24-12.54,1.21c-3.62-0.83-6.39-3.84-10.29-2.71
			c-1.8,0.52-3.49,1.52-5.15,2.35c-2.1,1.05-4.21,2.13-6.31,3.18C103.86,303.68,104.28,304.4,104.75,304.15z"/>
		<path class="st1" d="M120.91,298.16c-1.72-1.49-3.26-3.15-4.54-5.05c-0.58-0.86-1.11-1.77-1.61-2.68
			c-0.25-0.47-0.47-0.94-0.66-1.41c-0.17-0.39-0.33-0.75-0.47-1.13c-0.25-0.42-0.14-0.8,0.33-1.16c0.25-0.11,0.5-0.22,0.75-0.33
			c-3.04-4.47-4.95-9.55-5.59-14.91c-0.25,0.11-0.47,0.19-0.72,0.3c0.5,0.63,1,1.27,1.52,1.93c0.3,0.39,0.89-0.11,0.66-0.5
			c-4.81-8.59-7.39-18.25-7.44-28.08c-0.25,0.11-0.47,0.19-0.72,0.3c1.88,1.52,3.32,3.4,4.21,5.63c0.25-0.11,0.5-0.22,0.75-0.33
			c-2.16-4.56-2.6-9.69-1.33-14.55c-0.28,0-0.53,0-0.8,0c5.67,16.21,11.32,32.39,16.99,48.6c0.17,0.5,0.97,0.28,0.8-0.22
			c-2.85-8.31-4.26-17.04-4.18-25.85c-0.25,0.11-0.47,0.19-0.72,0.3c1.69,1.52,2.74,3.42,3.13,5.66c0.08,0.47,0.83,0.36,0.8-0.11
			c-0.08-1.68-0.19-3.4-0.28-5.08c-0.22,0.11-0.42,0.25-0.64,0.36c1.47,0.94,1.74,3.42,2.21,4.97c0.5,1.66,1,3.31,1.52,5
			c1.02,3.42,2.08,6.82,3.1,10.24c2.07,6.82,4.15,13.67,6.23,20.49c0.17,0.5,0.97,0.3,0.8-0.22c-2.24-7.35-4.46-14.72-6.7-22.06
			c-1.08-3.59-2.19-7.18-3.26-10.77c-0.55-1.85-1.11-3.67-1.66-5.52c-0.36-1.13-0.77-2.15-1.8-2.82c-0.25-0.17-0.64,0.05-0.64,0.36
			c0.08,1.68,0.19,3.4,0.28,5.08c0.28-0.03,0.55-0.08,0.8-0.11c-0.39-2.38-1.55-4.45-3.35-6.05c-0.28-0.25-0.69-0.08-0.72,0.3
			c-0.08,8.86,1.33,17.67,4.21,26.07c0.28-0.08,0.53-0.14,0.8-0.22c-5.67-16.21-11.32-32.39-16.99-48.6c-0.14-0.36-0.69-0.41-0.8,0
			c-1.33,5.11-0.83,10.44,1.41,15.19c0.19,0.41,0.94,0.11,0.75-0.33c-0.94-2.38-2.41-4.39-4.43-5.99c-0.28-0.22-0.72-0.08-0.72,0.3
			c0.06,9.97,2.66,19.8,7.56,28.5c0.22-0.16,0.44-0.33,0.66-0.5c-0.5-0.64-1-1.27-1.52-1.93c-0.22-0.28-0.75-0.05-0.72,0.3
			c0.64,5.52,2.57,10.74,5.7,15.33c0.28,0.39,0.83,0.14,0.75-0.33c-0.14-0.77-1.05-1.05-1.69-0.58c-1.16,0.83-0.03,2.79,0.39,3.73
			c1.58,3.51,3.93,6.57,6.84,9.09C120.74,299.07,121.32,298.49,120.91,298.16z"/>
		<path class="st1" d="M91.96,236.22c-0.36-5.19,9.08-2.21,11.71-1.71c4.32,0.8,8.61,1.6,12.92,2.4c8.61,1.6,17.24,3.2,25.85,4.81
			c0.53,0.11,0.75-0.69,0.22-0.8c-9.88-1.85-19.73-3.67-29.61-5.52c-4.84-0.91-9.68-1.82-14.53-2.71c-1.74-0.33-3.76-0.69-5.4,0.22
			c-1.25,0.66-2.08,1.88-1.96,3.31C91.16,236.75,92.02,236.75,91.96,236.22z"/>
		<path class="st1" d="M136.71,240.81c2.88,0.3,4.65-2.43,6.89-3.76c1.91-1.1,3.57-0.25,5.54,0.14c2.19,0.44,4.43,0.5,6.64,0.22
			c0.53-0.06,0.53-0.88,0-0.83c-2.49,0.3-4.98,0.19-7.42-0.41c-1.47-0.39-2.79-0.86-4.26-0.28c-2.6,0.99-4.37,4.42-7.39,4.09
			C136.18,239.92,136.18,240.75,136.71,240.81z"/>
		<path class="st1" d="M189.48,293.91c6.64-2.32,13.34-4.64,20.2-6.3c7.17-1.71,14.39-2.4,21.75-2.18
			c7.28,0.22,14.5,1.05,21.75,1.71c7.28,0.69,14.56,1.35,21.83,2.04c8.36,0.77,16.74,1.55,25.1,2.35c0.53,0.05,0.53-0.77,0-0.83
			c-14.91-1.38-29.83-2.76-44.77-4.17c-14.36-1.33-28.81-3.29-43.11-0.33c-7.86,1.63-15.44,4.28-22.99,6.9
			C188.76,293.27,188.98,294.07,189.48,293.91z"/>
		<path class="st1" d="M218.73,266.74c4.95-1.05,9.6-3.12,14.28-5c5.01-1.99,10.07-3.37,15.44-3.84c5.42-0.47,10.88-0.19,16.27,0.14
			c5.42,0.33,10.85,0.72,16.3,1.1c6.34,0.47,12.7,0.99,19.04,1.55c0.53,0.05,0.53-0.77,0-0.83c-11.23-0.99-22.47-1.85-33.73-2.57
			c-10.71-0.69-21.25-0.97-31.46,2.82c-5.42,2.02-10.68,4.58-16.38,5.8C218.01,266.05,218.2,266.85,218.73,266.74z"/>
		<path class="st1" d="M282.51,234.9c3.96-3.01,8.14-5.96,12.56-8.23c2.16-1.1,4.48-1.99,6.92-2.18c2.63-0.22,5.26,0.3,7.83,0.64
			c5.23,0.63,10.49,1.02,15.74,1.35c3.49,0.22,7.91,0.72,10.38-2.32c0.33-0.41-0.25-0.99-0.58-0.58c-2.8,3.45-8.69,2.15-12.51,1.9
			c-5.26-0.36-10.46-0.86-15.69-1.52c-2.24-0.28-4.45-0.5-6.7-0.08c-2.21,0.39-4.29,1.27-6.25,2.32c-4.26,2.26-8.3,5.08-12.15,8.01
			C281.68,234.51,282.09,235.23,282.51,234.9z"/>
		<path class="st1" d="M130.18,230.34c3.93-2.95,7.89-5.88,11.82-8.84c3.76-2.82,7.28-5.77,12.2-6.02c4.65-0.22,9.41,0.3,14.03,0.69
			c4.98,0.41,9.93,0.97,14.86,1.66c4.15,0.58,9.1,2.13,13.03-0.03c0.47-0.25,0.06-0.97-0.42-0.72c-2.02,1.1-4.26,1.1-6.5,0.83
			c-2.41-0.3-4.82-0.72-7.22-1.05c-4.65-0.63-9.33-1.16-14.03-1.55c-4.62-0.39-9.41-0.94-14.03-0.66
			c-4.29,0.25-7.47,2.46-10.82,4.97c-4.46,3.31-8.88,6.65-13.34,9.97C129.35,229.95,129.76,230.67,130.18,230.34z"/>
		<path class="st1" d="M285.86,259.53c0.25-1.82,0.61-3.59,1.13-5.36c0.25-0.83,0.5-1.66,0.83-2.49c0.19-0.5,0.72-1.33,1.44-1.13
			c0.36,0.11,0.52,1.35,0.55,1.6c0.05,0.44,0.66,0.58,0.8,0.11c1.3-4.23,2.79-8.86,6.78-11.32c-0.22-0.11-0.42-0.25-0.64-0.36
			c0,0.69-0.03,1.41-0.03,2.1c0,0.39,0.58,0.58,0.77,0.22c2.46-5.11,5.15-10.47,10.13-13.56c-0.19-0.16-0.41-0.3-0.61-0.47
			c-2.49,6.43-5.4,12.7-8.69,18.78c-0.22,0.39,0.33,0.88,0.66,0.5c1.85-2.21,3.74-4.42,6.17-6.02c-0.19-0.19-0.39-0.39-0.58-0.58
			c-3.07,6.46-6.42,12.76-10.1,18.89c-0.28,0.47,0.44,0.88,0.72,0.41c3.65-6.13,7.03-12.43,10.1-18.89
			c0.17-0.33-0.19-0.83-0.58-0.58c-2.49,1.66-4.43,3.89-6.34,6.16c0.22,0.17,0.44,0.33,0.66,0.5c3.32-6.13,6.25-12.45,8.77-18.97
			c0.14-0.33-0.33-0.64-0.61-0.47c-5.12,3.18-7.89,8.62-10.43,13.86c0.25,0.08,0.53,0.14,0.77,0.22c0-0.69,0.03-1.41,0.03-2.1
			c0-0.3-0.36-0.52-0.64-0.36c-4.15,2.57-5.78,7.37-7.14,11.82c0.28,0.03,0.55,0.08,0.8,0.11c-0.14-1.41-1.41-3.81-2.96-2.02
			c-0.77,0.91-1.08,2.4-1.41,3.54c-0.55,1.82-0.94,3.7-1.22,5.6C285,259.83,285.77,260.05,285.86,259.53z"/>
		<path class="st1" d="M92.52,212.92c2.16-1.16,4.34-2.32,6.72-2.96c2.52-0.66,5.01-0.44,7.53-0.11c5.01,0.66,10.02,1.32,15,1.99
			c0.53,0.08,0.53-0.75,0-0.83c-5.34-0.72-10.71-1.49-16.05-2.13c-2.46-0.3-4.82-0.3-7.19,0.39c-2.27,0.66-4.37,1.79-6.45,2.9
			C91.6,212.47,92.05,213.16,92.52,212.92z"/>
		<path class="st1" d="M260.84,25.61c1.99-1.68,4.79-1.35,6.97-0.28c1.66,0.8,3.02,2.43,4.95,2.51c1.8,0.06,3.29-1.16,4.81-1.96
			c1.02-0.52,2.08-0.88,3.24-0.64c1.24,0.25,2.32,0.97,3.46,1.46c3.73,1.63,6.23-0.64,9.38-2.43c0.89-0.5,1.83-0.94,2.85-1.02
			c1.3-0.11,2.46,0.47,3.62,0.97c1.83,0.77,3.21,1.08,5.06,0.33c1.91-0.75,3.46-0.64,5.37,0.06c1.22,0.44,2.38,0.99,3.65,1.27
			c1.91,0.44,3.96,0.33,5.4-1.13c0.39-0.39-0.22-0.97-0.58-0.58c-1.85,1.88-4.68,0.99-6.81,0.17c-2.16-0.83-4.37-1.71-6.67-0.86
			c-1.44,0.55-2.41,0.94-3.96,0.41c-1.05-0.36-2.02-0.94-3.1-1.24c-1.63-0.5-3.15-0.22-4.65,0.52c-1.72,0.86-3.21,2.21-5.01,2.93
			c-2.38,0.94-4.23-0.3-6.39-1.22c-1.58-0.66-3.07-0.77-4.65-0.08c-1.91,0.86-3.76,2.73-6.01,1.93c-1.19-0.41-2.13-1.38-3.21-1.99
			c-0.91-0.5-1.91-0.86-2.93-1.05c-1.96-0.36-3.87-0.03-5.42,1.27C259.84,25.39,260.45,25.97,260.84,25.61z"/>
		<path class="st1" d="M270.8,44.47c0.53,0,0.53-0.83,0-0.83S270.28,44.47,270.8,44.47z"/>
		<path class="st1" d="M276.34,47.48c1.3-2.35,4.37-1.22,6.28-0.44c1.91,0.77,3.62,1.24,5.64,0.55c1.66-0.58,3.15-1.68,4.87-2.07
			c2.38-0.55,3.74,1.46,5.89,1.93c3.38,0.75,6.78-3.01,9.96-1.44c0.89,0.44,1.49,1.02,2.55,0.94c0.97-0.06,1.85-0.52,2.8-0.75
			c2.63-0.61,5.37-0.14,7.72,1.16c0.47,0.25,0.88-0.47,0.41-0.72c-1.49-0.83-3.1-1.33-4.79-1.49c-0.86-0.08-1.74-0.06-2.6,0.08
			c-1.02,0.14-1.96,0.58-2.96,0.77c-1.36,0.25-1.94-0.41-3.04-0.88c-0.55-0.22-1.16-0.33-1.74-0.3c-1.38,0.06-2.71,0.64-3.99,1.1
			c-1.63,0.61-3.38,1.19-5.04,0.36c-1.41-0.69-2.52-1.74-4.18-1.74c-3.43,0.03-5.84,3.31-9.46,2.32c-2.68-0.75-7-3.37-8.99,0.17
			C275.37,47.53,276.09,47.95,276.34,47.48z"/>
		<path class="st1" d="M249.49,80.53c1.97-1.55,4.21-1.46,6.36-0.47c1.19,0.55,2.46,1.08,3.71,0.33c0.72-0.44,1.19-1.13,2.05-1.38
			c0.91-0.28,1.88-0.08,2.77,0.14c1.58,0.39,3.1,1.08,4.73,1.19c1.94,0.14,3.71-0.69,5.59-0.88c2.02-0.19,3.43,1.02,5.31,1.3
			c1.83,0.25,3.24-1.21,5.06-0.94c2.21,0.33,4.4,1.08,6.59,1.63c0.53,0.14,0.75-0.66,0.22-0.8c-2.3-0.58-4.68-1.46-7.03-1.71
			c-1.99-0.22-3.43,1.41-5.42,0.8c-1.85-0.55-3.18-1.35-5.17-1.08c-2.13,0.3-4.07,1.13-6.25,0.66c-1.69-0.36-3.32-1.16-5.06-1.27
			c-0.64-0.03-1.3,0.03-1.91,0.28c-0.77,0.3-1.19,0.94-1.91,1.35c-1.66,0.97-3.9-1.08-5.67-1.21c-1.69-0.14-3.24,0.44-4.57,1.46
			C248.47,80.28,249.08,80.86,249.49,80.53z"/>
		<path class="st1" d="M90.86,20.28c0.53,0,0.53-0.83,0-0.83C90.33,19.45,90.33,20.28,90.86,20.28z"/>
		<path class="st1" d="M93.29,20.91c0.5-2.46,3.76-0.88,4.95-0.14c1.36,0.86,2.79,1.63,4.45,1.16c1.8-0.52,3.02-2.07,5.01-2.18
			c1.88-0.08,3.71,0.77,5.48,1.33c1.52,0.47,3.13,0.8,4.7,0.41c1.85-0.44,3.43-1.74,5.31-2.07c3.71-0.64,7.06,2.37,10.82,1.22
			c0.5-0.17,0.3-0.97-0.22-0.8c-3.93,1.24-7.67-2.24-11.65-0.99c-2.05,0.64-3.76,2.07-6,1.99c-2.08-0.08-3.96-1.08-5.92-1.57
			c-1.55-0.39-3.13-0.5-4.62,0.19c-0.86,0.39-1.61,1.02-2.46,1.44c-1.41,0.66-2.6,0.28-3.87-0.44c-1.38-0.8-2.57-1.74-4.26-1.6
			c-1.19,0.08-2.24,0.69-2.46,1.91C92.41,21.22,93.21,21.44,93.29,20.91z"/>
		<path class="st1" d="M95.81,182.15c3.29-1.38,6.61,1.08,9.93,1.24c1.72,0.08,3.38-0.33,5.06-0.66c2.13-0.41,3.96-0.44,6,0.41
			c1.25,0.52,2.38,0.86,3.65,0.36c0.72-0.28,1.33-0.74,2.05-0.99c0.8-0.28,1.63-0.33,2.49-0.33c2.96,0.05,5.92,1.08,8.74-0.25
			c0.47-0.22,0.06-0.94-0.42-0.72c-3.02,1.41-6.36-0.14-9.55,0.19c-1.52,0.16-2.52,1.05-3.93,1.46c-1.69,0.5-3.35-0.94-5.01-1.19
			c-3.57-0.55-6.94,1.44-10.54,0.72c-2.88-0.58-5.78-2.26-8.72-1.02C95.12,181.57,95.34,182.37,95.81,182.15z"/>
		<path class="st2" d="M35.98,141.48c2.41,0,4.37-1.95,4.37-4.36c0-2.41-1.96-4.36-4.37-4.36s-4.37,1.95-4.37,4.36
			C31.61,139.52,33.57,141.48,35.98,141.48z"/>
		<path class="st2" d="M290.48,111.49c1.7,0,3.07-1.37,3.07-3.07c0-1.69-1.38-3.06-3.07-3.06c-1.7,0-3.07,1.37-3.07,3.06
			C287.4,110.12,288.78,111.49,290.48,111.49z"/>
		<path class="st2" d="M262.83,4.7c1.25,0,2.27-1.01,2.27-2.26s-1.02-2.26-2.27-2.26c-1.25,0-2.27,1.01-2.27,2.26
			S261.58,4.7,262.83,4.7z"/>
		<path class="st2" d="M162.88,201.07c1.56,0,2.82-1.26,2.82-2.82c0-1.55-1.26-2.82-2.82-2.82c-1.56,0-2.82,1.26-2.82,2.82
			C160.06,199.81,161.32,201.07,162.88,201.07z"/>
		<path class="st2" d="M32.77,41.1c1.79,0,3.24-1.45,3.24-3.23c0-1.78-1.45-3.23-3.24-3.23c-1.79,0-3.24,1.45-3.24,3.23
			C29.54,39.65,30.99,41.1,32.77,41.1z"/>
		<path class="st2" d="M144.4,154.46c1.02,0,1.85-0.83,1.85-1.85s-0.83-1.85-1.85-1.85c-1.02,0-1.85,0.83-1.85,1.85
			S143.38,154.46,144.4,154.46z"/>
		<path class="st2" d="M319.39,170.2c1.56,0,2.82-1.26,2.82-2.82c0-1.56-1.26-2.82-2.82-2.82c-1.56,0-2.82,1.26-2.82,2.82
			C316.57,168.93,317.83,170.2,319.39,170.2z"/>
		<path class="st2" d="M11.74,216.75c1.16,0,2.1-0.94,2.1-2.1s-0.94-2.1-2.1-2.1c-1.16,0-2.1,0.94-2.1,2.1
			S10.58,216.75,11.74,216.75z"/>
		<path class="st3" d="M97.75,53.66c-2.41,4.89-4.84,9.78-7.25,14.66c9.96,13.34,19.92,26.65,29.88,39.99
			c2.57-3.89,5.12-7.87,7.69-11.87c6.06-9.5,11.84-18.89,17.38-28.19c-1.88-4.78-3.79-9.58-5.67-14.36
			c-1.22-0.64-2.44-1.24-3.65-1.88c-11.79,0.03-23.58,0.06-35.34,0.08C99.74,52.64,98.74,53.17,97.75,53.66z"/>
		<path d="M90.83,68.55c2.1-4.61,4.26-9.2,6.48-13.75c0.22-0.47-0.47-0.91-0.72-0.41c-2.21,4.56-4.37,9.14-6.48,13.75
			C89.89,68.6,90.61,69.04,90.83,68.55z"/>
		<path d="M90.27,69.04c9.74,13.34,19.67,26.51,29.8,39.57c0.33,0.41,0.91-0.17,0.58-0.58c-10.07-13.01-19.95-26.12-29.66-39.41
			C90.69,68.22,89.97,68.63,90.27,69.04z"/>
		<path d="M97.5,54.33c1.16-0.61,2.3-1.24,3.46-1.85c0.47-0.25,0.06-0.97-0.42-0.72c-1.16,0.61-2.3,1.24-3.46,1.85
			C96.58,53.88,97.03,54.57,97.5,54.33z"/>
		<path d="M101.65,52.53c8.63,0,17.29,0,25.93,0c0.53,0,0.53-0.83,0-0.83c-8.63,0-17.29,0-25.93,0
			C101.12,51.7,101.12,52.53,101.65,52.53z"/>
		<path d="M145.84,68.16c-1.74-4.61-3.54-9.17-5.4-13.75c-0.19-0.5-1-0.28-0.8,0.22c1.85,4.56,3.65,9.14,5.4,13.75
			C145.23,68.88,146.03,68.66,145.84,68.16z"/>
		<path d="M144.93,68.58c-8.11,13.25-16.38,26.43-24.82,39.49c-0.3,0.44,0.42,0.86,0.72,0.41c8.44-13.06,16.71-26.21,24.82-39.49
			C145.92,68.55,145.2,68.11,144.93,68.58z"/>
		<path d="M139.95,53.55c-0.97-0.61-1.94-1.24-2.91-1.85c-0.44-0.28-0.86,0.41-0.42,0.72c0.97,0.61,1.94,1.24,2.91,1.85
			C140,54.57,140.41,53.86,139.95,53.55z"/>
		<path d="M136.1,51.62c-7.22,0-14.44,0-21.64,0c-0.53,0-0.53,0.83,0,0.83c7.22,0,14.45,0,21.64,0
			C136.62,52.45,136.62,51.62,136.1,51.62z"/>
		<path d="M91.16,68.96c4.95-2.13,9.91-4.25,14.86-6.38c0.5-0.22,0.06-0.91-0.41-0.72c-4.95,2.13-9.91,4.25-14.86,6.38
			C90.28,68.46,90.69,69.18,91.16,68.96z"/>
		<path d="M97.64,54.08c3.04,0.47,6.03,1.13,8.99,1.96c0.53,0.14,0.75-0.66,0.22-0.8c-2.96-0.86-5.95-1.49-8.99-1.96
			C97.33,53.19,97.08,53.99,97.64,54.08z"/>
		<path d="M106.41,55.9c0.66,2.07,1.25,4.14,1.74,6.27c0.11,0.52,0.91,0.3,0.8-0.22c-0.5-2.13-1.08-4.2-1.74-6.27
			C107.04,55.18,106.24,55.38,106.41,55.9z"/>
		<path d="M107.68,55.98c7.42,0,14.8,0,22.22,0c0.53,0,0.53-0.83,0-0.83c-7.42,0-14.8,0-22.22,0
			C107.15,55.15,107.15,55.98,107.68,55.98z"/>
		<path d="M129.54,56.15c-0.28,1.52-0.55,3.07-0.83,4.58c-0.08,0.52,0.72,0.75,0.8,0.22c0.28-1.52,0.55-3.07,0.83-4.58
			C130.43,55.85,129.62,55.62,129.54,56.15z"/>
		<path d="M108.59,62.22c6.47,0,12.95,0,19.45,0c0.53,0,0.53-0.83,0-0.83c-6.48,0-12.95,0-19.45,0
			C108.07,61.4,108.07,62.22,108.59,62.22z"/>
		<path d="M130.7,55.98c3.02-0.64,6-1.27,9.02-1.91c0.53-0.11,0.3-0.91-0.22-0.8c-3.02,0.64-6.01,1.27-9.02,1.91
			C129.96,55.29,130.18,56.09,130.7,55.98z"/>
		<path d="M129.32,61.98c2.79,0.44,5.4,2.02,7.94,3.2c2.71,1.27,5.4,2.54,8.11,3.81c0.47,0.22,0.91-0.5,0.42-0.72
			c-2.88-1.35-5.73-2.68-8.61-4.03c-2.43-1.16-4.95-2.62-7.64-3.07C129.01,61.09,128.79,61.89,129.32,61.98z"/>
		<path d="M108.84,63.49c3.6,14.8,7.17,29.63,10.76,44.43c0.14,0.52,0.91,0.3,0.8-0.22c-3.6-14.8-7.17-29.63-10.76-44.43
			C109.51,62.75,108.7,62.97,108.84,63.49z"/>
		<path d="M128.16,64.49c-3.38,14.25-6.17,28.66-8.33,43.16c-0.08,0.52,0.72,0.74,0.8,0.22c2.16-14.5,4.95-28.89,8.33-43.16
			C129.1,64.18,128.29,63.96,128.16,64.49z"/>
		<path d="M128.43,36.85c1.25-3.18,1.94-6.52,2.05-9.94c0.03-0.52-0.8-0.52-0.83,0c-0.11,3.34-0.8,6.6-2.02,9.72
			C127.44,37.12,128.24,37.32,128.43,36.85z"/>
		<path d="M134.11,37.4c2.66-3.01,5.65-5.66,8.99-7.9c0.44-0.3,0.03-1.02-0.41-0.72c-3.4,2.26-6.48,4.97-9.16,8.04
			C133.16,37.21,133.75,37.79,134.11,37.4z"/>
		<path d="M139.56,42.51c3.43-1.02,6.97-1.41,10.54-1.13c0.53,0.03,0.53-0.8,0-0.83c-3.65-0.28-7.25,0.11-10.76,1.16
			C138.84,41.87,139.03,42.67,139.56,42.51z"/>
		<path class="st1" d="M81.25,23.15c0.33,5.47-2.74,10.69-7.66,13.06c-0.28,0.14-0.25,0.55,0,0.72c4.51,2.71,6.59,7.68,7.78,12.56
			c0.14,0.52,0.91,0.3,0.8-0.22C80.92,44.16,78.71,39,74,36.21c0,0.25,0,0.47,0,0.72c5.17-2.51,8.44-8.06,8.08-13.78
			C82.06,22.63,81.23,22.63,81.25,23.15z"/>
		<path class="st1" d="M81.56,23.15c-0.36,5.74,2.91,11.29,8.08,13.78c0-0.25,0-0.47,0-0.72c-4.73,2.82-6.95,7.98-8.19,13.12
			c-0.14,0.52,0.66,0.75,0.8,0.22c1.19-4.92,3.27-9.91,7.8-12.62c0.25-0.14,0.28-0.58,0-0.72c-4.93-2.37-8.02-7.59-7.69-13.06
			C82.42,22.63,81.59,22.63,81.56,23.15z"/>
		<path d="M216.29,230.45c0.97-0.41,2.3-1.02,3.82-1.88c2.55-1.41,3.82-2.13,4.59-3.26c1-1.49,0.61-2.29,1.91-3.78
			c0.19-0.25,1.11-1.22,2.3-1.74c2.05-0.86,3.96,0.16,7.14,1.3c2.93,1.05,5.23,1.55,9.82,2.57c1.83,0.41,4.04,0.83,7.25,1.82
			c0.91,0.28,1.63,0.53,2.13,0.69c0.05,0.58,0.08,2.07-0.89,3.42c-0.44,0.61-1.05,1.1-2.02,1.55c-2.24,1.05-4.37,0.86-6.17,0.77
			c-3.87-0.17-2.27,0.39-11.4,0.55c-1.99,0.03-3.62,0.03-4.76,0.03c-1.41,0.97-2.82,1.96-4.26,2.98c-2.44,1.77-4.76,3.53-6.97,5.27
			C217.95,237.33,217.12,233.88,216.29,230.45z"/>
		<path class="st3" d="M204.75,195.1c-1.99,1.05-2.21,1.43-9.63,7.73c-11.57,9.8-12.84,10.33-23.33,19.47
			c-10.04,8.73-11.93,10.91-13.84,13.78c-4.76,7.26-5.81,13.34-6.12,16.29c-0.42,3.98-0.97,9.5,2.55,13.86
			c2.21,2.73,5.09,3.87,6.06,4.22c2.91,1.11,5.28,0.97,9.57,0.66c5.7-0.41,10.04-1.52,11.76-1.99c1.88-0.52,6.25-1.82,11.73-4.53
			c5.15-2.54,7.36-4.42,14.39-9.14c3.13-2.1,7.75-5.16,13.56-8.7c0.36-2.76,0.06-4.91-0.25-6.27c-0.72-3.2-2.19-5.41-3.82-7.84
			c-1.33-1.99-2.6-3.51-3.49-4.5c2.07-1.57,4.79-3.84,7.64-6.88c1.91-2.04,4.93-5.3,7.44-9.89c3.1-5.63,6.2-11.32,4.21-15.24
			C230.07,190,215.18,189.72,204.75,195.1z"/>
		<path class="st4" d="M229.54,198.12c-1.58,3.64-4.18,8.81-8.33,14.33c-6.03,7.98-12.12,12.4-21.31,18.94
			c-25.98,18.5-32.96,22.73-32.18,24.49c1.05,2.4,15.69-1.91,17.82-2.54c15.55-4.58,27.01-11.65,34.17-16.82
			c-1.83-2.79-3.65-5.58-5.48-8.34c2.24-1.6,5.34-4.14,8.25-7.93c1.6-2.07,4.04-5.27,5.62-10.11
			C229.71,205.35,229.77,201.07,229.54,198.12z"/>
		<path d="M204.64,195.08c-9.85,7.32-19.45,15-28.69,23.03c-4.43,3.84-8.86,7.68-13.01,11.79c-3.68,3.65-7.11,7.68-9.19,12.48
			c-2.16,4.97-2.77,10.71-2.24,16.1c0.44,4.45,2.08,8.92,6.14,11.24c4.26,2.4,9.63,2.15,14.33,1.66c5.78-0.58,11.48-1.99,16.88-4.17
			c12.04-4.89,21.47-14.03,32.85-20.08c0.47-0.25,0.06-0.97-0.41-0.72c-9.49,5.05-17.57,12.34-27.09,17.4
			c-4.98,2.65-10.35,4.58-15.88,5.77c-5.12,1.08-10.88,1.9-16.08,0.91c-2.43-0.47-4.79-1.46-6.53-3.29
			c-1.69-1.79-2.6-4.14-3.07-6.54c-1.02-5.22-0.55-11.13,1.16-16.15s5.06-9.25,8.72-13.01c3.79-3.89,7.94-7.48,12.01-11.04
			c9.82-8.62,20.01-16.85,30.52-24.63C205.47,195.49,205.08,194.77,204.64,195.08z"/>
		<path d="M177.52,251.69c9.08-3.51,17.29-8.75,25.1-14.5c3.85-2.82,7.64-5.74,11.4-8.67c3.71-2.9,7.25-5.97,10.13-9.69
			c0.33-0.41-0.39-0.83-0.72-0.41c-2.93,3.81-6.61,6.88-10.38,9.83c-3.71,2.9-7.44,5.77-11.26,8.56
			c-7.64,5.58-15.63,10.71-24.49,14.11C176.8,251.08,177.02,251.88,177.52,251.69z"/>
		<path d="M213.61,228.43c5.34,4.47,8.16,11.4,7.41,18.34c-0.05,0.53,0.78,0.53,0.83,0c0.75-7.12-2.19-14.3-7.67-18.92
			C213.8,227.5,213.22,228.08,213.61,228.43z"/>
		<path d="M220.97,239.07c1.58-0.47,2.96-1.79,4.29-2.73c1.66-1.16,3.29-2.32,4.95-3.48c0.44-0.3,0.03-1.02-0.41-0.72
			c-1.49,1.05-3.02,2.13-4.51,3.18c-1.38,0.97-2.91,2.46-4.54,2.96C220.22,238.4,220.44,239.21,220.97,239.07z"/>
		<path d="M216.4,230.84c3.13-1.3,6.01-3.07,8.61-5.25c0.42-0.36-0.19-0.94-0.58-0.58c-2.46,2.1-5.23,3.78-8.22,5.03
			C215.71,230.26,215.93,231.06,216.4,230.84z"/>
		<path d="M224.7,225.23c0.53,0,0.53-0.83,0-0.83C224.18,224.4,224.18,225.23,224.7,225.23z"/>
		<path d="M225.7,224.24c0.47-1.11,0.97-2.32,1.85-3.18c1.19-1.16,2.63-0.99,4.15-0.66c2.82,0.63,5.59,1.52,8.36,2.32
			c2.57,0.72,5.15,1.35,7.8,1.66c1.55,0.16,2.85,0.36,4.23,1.05c1.02,0.5,1.91,0.99,3.04,1.1c0.53,0.06,0.53-0.77,0-0.83
			c-1.52-0.14-2.71-1.19-4.15-1.66c-1.44-0.47-3.04-0.44-4.54-0.69c-3.26-0.53-6.45-1.52-9.6-2.46c-1.55-0.44-3.1-0.88-4.68-1.24
			c-1.16-0.25-2.38-0.55-3.54-0.19c-2.02,0.61-2.99,2.76-3.74,4.56C224.7,224.51,225.5,224.74,225.7,224.24z"/>
		<path d="M230.1,233.46c5.92-0.88,11.79-1.02,17.76-1.13c2.08-0.03,4.29-0.28,5.95-1.63c1.41-1.16,2.21-2.84,1.83-4.64
			c-0.11-0.52-0.91-0.3-0.8,0.22c0.52,2.51-1.74,4.36-3.99,4.92c-2.3,0.55-4.79,0.28-7.14,0.33c-4.65,0.08-9.24,0.47-13.84,1.16
			C229.35,232.74,229.6,233.54,230.1,233.46z"/>
		<path d="M251.1,227.96c2.05-1.46,4.12-2.93,6.17-4.39c0.14-0.94,0.58-2.98,2.27-4.72c0.5-0.52,1.66-1.74,3.4-2.07
			c1.83-0.36,3.24,0.47,4.82,1.19c2.55,1.16,5.01,1.6,9.88,2.54c3.85,0.72,5.78,1.08,8.55,0.94c3.76-0.22,6.45-1.21,8.05,0.36
			c0.17,0.17,0.86,0.91,0.8,1.82c-0.08,1.16-1.33,1.9-2.32,2.49c-4.34,2.49-6.78,3.2-6.78,3.2c-6.14,1.79-9.24,2.71-11.9,2.93
			c-2.16,0.16-5.23,0.25-8.94-0.33c-1.08,3.7-4.35,6.07-7.42,5.88C253.73,237.55,250.08,233.1,251.1,227.96z"/>
		<path class="st3" d="M211.36,203.55c0.61-1.85,1.74-4.2,3.87-4.97c1.38-0.5,2.66-0.17,3.07-0.05c2.57,0.63,7.86-0.28,18.4-2.07
			c5.23-0.88,11.84-2.18,19.45-4.11c0.03,1.41,0,3.26-0.08,5.41c-0.19,4.83-0.69,8.48-0.8,9.33c-0.47,3.42-1.3,9.11-3.82,16.02
			c-0.64,1.77-1.27,3.23-1.72,4.23c1.08,0.5,2.24,1.16,3.38,2.1c4.68,3.73,6.03,9,6.48,11.24c-0.66,0.8-1.66,1.99-2.93,3.34
			c-5.15,5.47-9.91,8.53-18.98,14.14c-5.59,3.45-9.68,5.96-16.24,9.83c-7.97,4.69-14.42,8.34-22.44,10.63
			c-1.99,0.58-5.15,1.35-9.13,0.94c-1.94-0.19-5.42-0.55-8.77-2.98c-4.29-3.09-5.64-7.62-6.2-9.61c-1.25-4.45-0.77-8.62,0.39-12.95
			c0.8-3.04,3.71-13.12,13.81-24.47c2.02-2.26,7.77-7.37,19.23-17.59c2.77-2.46,5.04-4.47,6.56-5.8
			C213.72,205.27,212.55,204.41,211.36,203.55z"/>
		<path class="st4" d="M249,195.9c-0.64,2.43-1.66,5.94-3.21,10.05c-14.14,37.39-45.74,53.54-43.17,57.58
			c1.88,2.98,19.92-4.45,32.93-12.26c9.74-5.85,16.99-12.12,21.83-16.85c-0.78-1.13-1.96-2.68-3.76-4.14
			c-1.74-1.41-3.4-2.26-4.65-2.79c0.86-1.24,1.99-3.12,2.96-5.52c0.64-1.55,1.19-3.2,1.91-6.57c1.16-5.33,1.63-9.56,1.77-10.88
			c0.33-3.18,0.64-7.29,0.58-12.15C253.78,193.53,251.4,194.72,249,195.9z"/>
		<path d="M255.78,192.34c0.03,5.22-0.3,10.44-1.02,15.63c-0.67,4.67-1.5,9.47-3.21,13.89c-1.85,4.78-5.04,8.26-8.88,11.54
			c-3.93,3.34-7.89,6.63-11.84,9.91c-4.54,3.78-9.1,7.54-13.64,11.32c-0.42,0.33,0.17,0.91,0.58,0.58
			c8.33-6.9,16.66-13.78,24.93-20.77c3.65-3.09,6.97-6.3,8.96-10.74c1.94-4.31,2.88-9.03,3.62-13.67c0.94-5.86,1.38-11.76,1.33-17.7
			C256.61,191.79,255.78,191.79,255.78,192.34z"/>
		<path d="M211.83,204.33c1.13,0.61,2.27,1.21,3.43,1.82c0.47,0.25,0.88-0.47,0.41-0.72c-1.13-0.61-2.27-1.22-3.43-1.82
			C211.78,203.36,211.36,204.08,211.83,204.33z"/>
		<path d="M215.27,205.82c-9.85,8.01-20.2,15.93-28.42,25.65c-7.08,8.37-12.92,18.97-12.89,30.21c0,4.94,1.36,10.11,5.01,13.61
			c3.65,3.53,8.94,4.92,13.92,4.67c6.09-0.3,11.87-2.71,17.29-5.36c5.81-2.84,11.32-6.21,16.85-9.55
			c11.4-6.9,24.13-13.34,32.68-23.86c0.33-0.41-0.25-0.99-0.58-0.58c-7.17,8.84-17.24,14.5-26.84,20.3
			c-5.29,3.2-10.51,6.46-15.91,9.5c-5.29,2.98-10.79,5.83-16.63,7.51c-5.48,1.57-11.59,1.9-16.77-0.83
			c-4.98-2.6-7.53-7.62-8.05-13.09c-1.02-11.05,4.54-22.04,11.26-30.43c8.38-10.47,19.34-18.8,29.69-27.2
			C216.26,206.07,215.68,205.49,215.27,205.82z"/>
		<path d="M249.55,227.66c5.2,2.49,8.83,7.4,9.68,13.09c0.08,0.52,0.89,0.3,0.8-0.22c-0.86-5.88-4.68-11.05-10.04-13.59
			C249.49,226.72,249.08,227.44,249.55,227.66z"/>
		<path d="M251.21,228.38c1.11-0.44,1.99-1.19,2.93-1.91c1.11-0.86,2.24-1.68,3.35-2.54c0.42-0.33,0-1.05-0.42-0.72
			c-1,0.74-1.99,1.49-2.99,2.26c-0.97,0.75-1.94,1.66-3.1,2.1C250.52,227.77,250.71,228.57,251.21,228.38z"/>
		<path d="M257.91,223.6c0.55-1.63,1.22-3.23,2.1-4.72c1.22-2.04,3.04-1.82,5.09-1.3c3.18,0.8,6.23,2.02,9.43,2.73
			c6.23,1.38,12.62,1.85,18.98,1.44c0.53-0.03,0.53-0.86,0-0.83c-7.5,0.5-15.05-0.28-22.3-2.32c-1.74-0.5-3.43-1.13-5.18-1.63
			c-1.33-0.39-2.9-0.83-4.29-0.55c-1.24,0.25-1.96,1.19-2.57,2.24c-0.86,1.49-1.52,3.09-2.07,4.72
			C256.94,223.88,257.74,224.1,257.91,223.6z"/>
		<path d="M259.1,236.94c2.08-1.57,4.12-3.15,6.2-4.72c0.41-0.33,0-1.05-0.42-0.72c-2.08,1.57-4.12,3.15-6.2,4.72
			C258.27,236.55,258.68,237.27,259.1,236.94z"/>
		<path d="M265.27,232.02c6.75,1.46,13.64,0.36,20.03-2.07c2.9-1.1,6.23-2.35,8.72-4.22c1.74-1.3,1.99-3.78-0.3-4.67
			c-0.5-0.19-0.72,0.61-0.22,0.8c1.24,0.47,1.38,1.82,0.53,2.76c-0.42,0.47-1,0.77-1.55,1.11c-1.13,0.63-2.3,1.21-3.46,1.77
			c-2.46,1.16-5.01,2.15-7.64,2.93c-5.17,1.49-10.6,1.99-15.91,0.83C264.96,231.11,264.74,231.91,265.27,232.02z"/>
		<path class="st2" d="M193.16,112.76c4.21-3.48,10.49-7.68,18.87-10.16c3.93-1.16,8.85-2.6,15.38-2.04
			c10.02,0.86,16.91,5.77,19.34,7.57c3.82,2.79,6.42,5.74,8.02,7.81c0.31,19.36,0.72,38.74,1.24,58.1
			c0.17,5.96,0.33,11.96,0.53,17.92c-3.93,2.43-9.44,5.16-16.41,6.76c-16.33,3.73-29.91-1.24-35.42-3.65
			c-0.03-4.89-0.33-12.23-1.83-21.04c-2.43-14.47-6.23-20.3-8.61-32.75C193.1,134.85,191.97,125.18,193.16,112.76z"/>
		<path class="st3" d="M243.19,117.54c-1.36,1.49-1.61,3.17-1.52,9.64c0.05,6.79,0.41,11.43,0.64,16.82
			c0.17,3.89,0.3,6.99,0.22,11.02c-0.08,5.08-0.42,9.25-0.72,12.04c-2.71,3.04-5.12,5.41-6.92,7.12
			c-4.04,3.84-8.44,7.98-14.94,11.87c-2.57,1.52-4.79,2.62-6.28,3.31c-1.36-0.22-2.88-0.55-4.54-0.97
			c-3.93-0.99-5.56-1.88-8.52-1.88c-0.89,0-3.68,0-3.96,0.99c-0.25,0.83,1.3,2.13,2.52,2.76c1.14,0.58,1.63,0.41,2.77,0.94
			c1.27,0.61,2.1,1.49,2.6,2.15c-0.53,0.74-1.33,1.88-2.21,3.34c-1.02,1.71-1.25,2.38-2.43,4.42c-1.25,2.15-1.88,3.23-2.43,3.78
			c-0.86,0.8-1.38,0.97-5.23,2.68c-3.82,1.71-4.48,2.1-4.48,2.57c0,0.47,0.75,0.58,3.71,1.85c2.41,1.02,2.63,1.24,3.87,1.6
			c1.55,0.44,2.49,0.72,3.62,0.47c1.8-0.36,2.96-1.71,3.46-2.43c0.25,0.22,0.86,0.69,1.66,0.72c0.64,0,1.16-0.25,1.58-0.58
			c1.74-1.24,2.6-3.53,4.32-6.1c0.3-0.44,1.38-2.07,3.13-3.89c1.08-1.16,2.07-2.02,2.79-2.6c0.97-0.22,2.41-0.55,4.12-1.05
			c6.67-1.9,11.48-4.2,15.52-6.13c2.35-1.13,5.01-2.62,10.29-5.58c4.59-2.57,6.97-4,9.08-6.82c0.22-0.3,1.36-1.82,2.35-4.06
			c0.3-0.69,1.38-3.15,1.96-7.45c0.28-1.91,0.28-2.96,0.3-8.92c0.05-7.59,0.05-6.68,0.05-7.46c-0.03-11.13-0.61-10.13-0.8-20.35
			c-0.03-0.97-0.06-3.59-0.86-6.9c-0.86-3.59-1.94-5.19-2.55-5.99c-0.77-1.02-1.71-2.24-3.32-2.93
			C249.11,114.25,245.21,115.3,243.19,117.54z"/>
		<path class="st5" d="M252.07,115.52c0.67,2.18,1.47,5.33,2.02,9.14c0.67,4.61,0.91,9.69-0.58,22.97
			c-1.25,11.1-1.85,16.65-3.46,21.84c-2.3,7.4-3.96,12.79-9.02,17.04c-3.27,2.73-6.84,4-14,6.52c-5.26,1.85-9.77,2.96-12.87,3.64
			c-2.21,2.98-5.51,6.77-10.18,10.36c-3.65,2.82-7.17,4.75-10.07,6.07c0.41,0.28,2.13,1.38,4.45,1.08c2.71-0.36,4.18-2.29,4.43-2.65
			c0.53,0.39,1.3,0.8,2.16,0.66c1.77-0.28,2.71-2.79,3.18-3.92c1.02-2.35,3.07-5.58,7.66-9.11c3.04-0.8,7.17-2.02,11.95-3.84
			c6.67-2.57,11.15-5.05,15.97-7.73c7.72-4.31,9.46-6.07,10.74-7.79c2.33-3.12,3.29-6.32,3.71-7.73c0.75-2.51,0.89-5.33,1.16-10.83
			c0.19-4.09,0.19-7.23,0.19-9.61c0-4.09-0.08-7.12-0.17-9.75c-0.11-3.81-0.33-8.29-0.89-13.64c-0.41-3.89-0.72-5.44-1.6-7.18
			C255.5,118.31,253.48,116.54,252.07,115.52z"/>
		<path d="M242.77,117.42c-1.44,3.59-1.6,7.46-1.52,11.29c0.08,4.23,0.3,8.42,0.5,12.65c0.39,8.56,0.66,17.15-0.36,25.68
			c-0.05,0.52,0.78,0.52,0.83,0c1-8.34,0.77-16.76,0.39-25.13c-0.19-4.14-0.41-8.28-0.53-12.45c-0.11-4-0.03-8.04,1.49-11.82
			C243.77,117.15,242.96,116.93,242.77,117.42z"/>
		<path d="M242.99,166.33c-2.54,1.41-4.59,3.45-6.56,5.58c-2.13,2.29-4.26,4.53-6.64,6.57c-4.87,4.22-10.35,7.7-16.21,10.41
			c-0.5,0.22-0.06,0.94,0.41,0.72c5.65-2.6,10.93-5.91,15.66-9.91c2.35-1.96,4.51-4.12,6.59-6.35c2.16-2.35,4.32-4.72,7.14-6.27
			C243.88,166.77,243.46,166.05,242.99,166.33z"/>
		<path d="M213.77,188.95c-3.04-0.63-6.11-1.3-9.16-1.99c-1.52-0.33-3.07-0.74-4.62-1.02c-0.97-0.17-1.99-0.25-2.85,0.3
			c-1.33,0.86-1.33,2.43-0.14,3.37c0.86,0.69,1.96,0.99,2.99,1.33c1.66,0.52,3.07,1.19,4.15,2.6c0.33,0.42,1.05,0,0.72-0.41
			c-0.97-1.24-2.13-2.13-3.62-2.65c-1.02-0.36-2.16-0.58-3.1-1.1c-0.66-0.36-1.52-0.91-1.02-1.91c0.47-0.94,1.66-0.86,2.52-0.72
			c2.3,0.33,4.59,0.99,6.89,1.52c2.35,0.53,4.7,1.02,7.06,1.52C214.08,189.86,214.3,189.06,213.77,188.95z"/>
		<path d="M203.48,193.67c-1.22,2.24-2.46,4.44-3.68,6.68c-0.61,1.08-1.14,2.24-1.85,3.29c-0.75,1.08-1.74,1.63-2.91,2.18
			c-2.19,1.02-4.54,1.85-6.64,3.04c-0.94,0.55-1.55,1.55-0.75,2.51c1,1.19,2.96,0.72,4.29,0.5c1.83-0.3,3.57-0.91,5.23-1.68
			c3.46-1.66,6.39-4.25,8.49-7.46c0.3-0.44-0.42-0.86-0.72-0.41c-1.85,2.87-4.43,5.19-7.44,6.79c-1.44,0.75-2.99,1.35-4.57,1.71
			c-0.88,0.22-1.83,0.41-2.77,0.44c-0.86,0.05-1.08,0.17-1.49-0.69c-0.53-0.5-0.47-0.83,0.14-0.99c0.19-0.08,0.36-0.17,0.55-0.25
			c1.77-0.83,3.57-1.63,5.34-2.46c1.38-0.63,2.74-1.19,3.68-2.43c1.11-1.46,1.88-3.2,2.77-4.81c1.02-1.85,2.05-3.7,3.04-5.52
			C204.45,193.61,203.73,193.2,203.48,193.67z"/>
		<path d="M216.12,199.72c7.39-2.07,14.56-4.83,21.42-8.26c3.4-1.71,6.72-3.56,9.96-5.6c2.9-1.82,5.98-3.67,8.05-6.46
			c0.3-0.44-0.41-0.86-0.72-0.41c-2.16,2.93-5.54,4.83-8.58,6.71c-3.1,1.9-6.31,3.67-9.57,5.3c-6.67,3.29-13.61,5.94-20.78,7.95
			C215.4,199.05,215.62,199.85,216.12,199.72z"/>
		<path d="M243.32,118.17c2.3-4.5,8.19-3.48,11.1-0.28c3.49,3.87,3.65,9.53,4.04,14.44c0.83,10.74,1,21.57,0.33,32.31
			c-0.33,5.22-1.11,10.74-4.59,14.88c-0.33,0.41,0.25,0.99,0.58,0.58c3.13-3.76,4.21-8.51,4.65-13.26
			c0.58-6.07,0.58-12.23,0.53-18.34c-0.06-6.38-0.36-12.79-0.94-19.14c-0.44-4.78-1.3-10.05-5.26-13.23
			c-3.38-2.71-9.02-2.62-11.18,1.6C242.36,118.23,243.07,118.64,243.32,118.17z"/>
		<path d="M191.19,212.34c2.02,0.91,4.46,2.29,6.75,2.29c2.21-0.03,3.85-1.85,5.34-3.23c4.29-3.98,8.58-7.95,12.87-11.9
			c0.39-0.36-0.19-0.94-0.58-0.58c-3.62,3.37-7.25,6.71-10.88,10.08c-1.61,1.46-3.27,3.56-5.29,4.47c-2.38,1.08-5.65-0.86-7.78-1.82
			C191.14,211.4,190.72,212.12,191.19,212.34z"/>
		<path d="M202.45,211.76c0.91,1.71,2.93,1.02,3.96-0.17c2.02-2.38,3.6-5.25,5.31-7.82c0.3-0.44-0.41-0.86-0.72-0.41
			c-1.08,1.6-2.16,3.2-3.24,4.81c-0.61,0.88-3.29,5.66-4.59,3.18C202.92,210.87,202.21,211.29,202.45,211.76z"/>
		<path d="M196.03,210.4c0.83,0.44,1.85,0.88,2.77,0.44c0.47-0.25,0.67-0.63,0.89-1.08c0.39-0.75,0.78-1.33,1.49-1.79
			c0.44-0.3,0.03-1.02-0.41-0.72c-0.66,0.44-1.22,0.99-1.61,1.71c-0.28,0.53-0.44,1.16-1.16,1.22c-0.53,0.05-1.11-0.28-1.55-0.5
			C196.01,209.46,195.56,210.15,196.03,210.4z"/>
		<path class="st3" d="M190.36,52.61c-0.97,1.96-1.94,5.25-2.24,6.32c-0.44,1.55-1.44,5.16-1.99,9.97c-0.3,2.65-0.64,5.55-0.36,9.39
			c0.14,1.82,0.33,4.69,1.41,8.26c0.72,2.43,1.77,5.94,4.62,9.53c2.49,3.12,5.34,5.08,7.61,6.27c1.44,0.03,3.18-0.06,5.12-0.41
			c3.49-0.66,6.2-1.96,8.02-3.01c0.25,1.41,0.58,2.9,1,4.45c0.86,3.2,1.91,6.02,2.96,8.45c1.13-0.19,2.49-0.52,3.93-1.19
			c4.57-2.13,6.75-6.05,7.53-7.68c-0.41-1.6-0.75-3.34-1.05-5.14c-1.05-6.71-0.77-12.7-0.11-17.56c0.58,0.19,1.52,0.44,2.68,0.39
			c2.27-0.14,3.82-1.38,4.59-2.04c0.66-0.55,3.68-3.23,3.57-7.21c-0.03-0.94-0.08-3.23-1.72-4.47c-1.52-1.13-3.57-0.72-5.06-0.41
			c-1.71,0.36-2.99,1.08-3.76,1.57c0.58-1.91,1.8-6.79,0-12.48c-0.39-1.22-2.96-8.95-10.54-12.29
			C206.27,38.72,193.9,45.52,190.36,52.61z"/>
		<path class="st6" d="M221.63,52.78c0.22,2.57,0.39,6.3,0,10.71c-1.19,13.39-6.5,22.7-7.89,25.02c-2.1,3.53-5.7,8.67-11.46,13.72
			c1.72-0.22,3.68-0.61,5.78-1.35c5.78-2.04,9.66-5.55,11.76-7.84c0.17,3.07,0.69,6.79,1.94,10.88c0.55,1.74,1.16,3.34,1.8,4.78
			c1.47-1.9,2.91-3.81,4.37-5.74c-0.3-1.79-0.58-3.7-0.77-5.66c-0.64-5.94-0.64-11.4-0.3-16.26c1.24,0.03,3.04-0.08,4.95-0.83
			c8.36-3.31,13.12-16.49,8.61-23.67c-0.19-0.3-1.19-1.85-3.24-3.23C230.85,49.05,222.79,52.28,221.63,52.78z"/>
		<path class="st2" d="M188.34,58.11c-0.55-1.91-1.33-5.55-0.53-10.02c0.25-1.38,1.11-5.83,4.15-9.33
			c4.46-5.11,10.04-4.14,17.29-6.74c4.59-1.63,10.9-5.05,17.29-13.12c-0.58,2.98-1.16,5.99-1.74,8.97c1,0.28,4.35,0.99,7.78-0.69
			c5.7-2.79,6.2-9.53,6.23-9.83c0.69,1.55,1.94,4.97,1.38,9.33c-0.39,2.98-1.47,5.22-2.24,6.57c0.33,0.36,2.1,2.18,4.15,1.91
			c2.49-0.33,4.82-3.73,4.15-8.12c0.55,1.63,1.22,4.31,1.05,7.59c-0.22,4-1.55,7.01-2.44,8.64c0.22,0.19,1.63,1.46,3.62,1.22
			c1.74-0.22,3.24-1.49,3.82-3.29c-0.14,1.85-0.47,4.53-1.55,7.59c-1.47,4.14-2.68,4.47-3.29,7.43c-0.97,4.64,1.52,6.21,0.86,10.36
			c-0.55,3.48-2.82,5.66-5.7,8.45c-5.23,5.05-11.24,7.79-16.27,9.31c0.22-1.55,0.47-3.09,0.69-4.64c0.64,0.39,1.74,0.91,3.13,0.86
			c2.82-0.11,4.59-2.62,5.54-3.98c1.08-1.52,2.88-4.11,1.91-6.9c-0.8-2.26-2.93-3.2-3.13-3.29c-2.49-1.05-5.7-0.11-7.77,2.43
			c-1.16-4.56-2.3-9.09-3.46-13.64c-3.93-2.49-7.83-4.94-11.76-7.43c-1.94-0.36-7.22-1.08-13.14,1.55
			C192.38,51.95,189.34,56.45,188.34,58.11z"/>
		<path d="M187.93,58c-2.35,8.78-3.76,18.11-1.6,27.09c1.77,7.29,6.25,15.6,13.89,17.98c0.5,0.17,0.72-0.64,0.22-0.8
			c-7.67-2.37-11.95-11.02-13.53-18.31c-1.85-8.56-0.44-17.4,1.8-25.74C188.87,57.72,188.07,57.5,187.93,58z"/>
		<path d="M200.82,102.93c12.76-1.3,23.41-10.49,26.4-22.98c0.11-0.52-0.66-0.75-0.8-0.22c-2.91,12.07-13.17,21.1-25.6,22.37
			C200.3,102.15,200.27,102.98,200.82,102.93z"/>
		<path d="M226.5,80.17c5.7,3.48,11.26-3.81,11.62-8.92c0.19-2.71-1.05-4.78-3.74-5.55c-2.49-0.72-5.2,0.03-6.97,1.91
			c-0.36,0.39,0.22,0.97,0.58,0.58c1.47-1.57,3.68-2.26,5.81-1.79c1.11,0.25,2.33,0.86,2.96,1.85c0.69,1.08,0.61,2.57,0.44,3.76
			c-0.66,4.28-5.42,10.41-10.29,7.43C226.47,79.18,226.03,79.9,226.5,80.17z"/>
		<path d="M226.45,80.12c-1.08,7.65-0.69,15.41,1.13,22.92c0.14,0.53,0.94,0.3,0.8-0.22c-1.8-7.37-2.19-14.99-1.14-22.48
			C227.3,79.81,226.5,79.59,226.45,80.12z"/>
		<path d="M212.14,99.03c0.86,4.47,2.19,8.81,4.01,13.01c0.22,0.5,0.94,0.06,0.72-0.41c-1.8-4.11-3.1-8.39-3.93-12.81
			C212.83,98.29,212.06,98.51,212.14,99.03z"/>
		<path d="M216.73,112.15c5.34-0.86,9.85-4.53,11.87-9.53c0.19-0.5-0.61-0.72-0.8-0.22c-1.91,4.75-6.25,8.15-11.29,8.95
			C215.99,111.43,216.21,112.23,216.73,112.15z"/>
		<path d="M212.8,100c1.14,0.06,1.91-0.72,2.77-1.38c1.13-0.88,2.21-1.82,3.21-2.82c1.85-1.85,3.35-3.98,4.32-6.41
			c0.19-0.5-0.61-0.72-0.8-0.22c-0.86,2.15-2.19,4.06-3.79,5.72c-0.72,0.77-1.49,1.46-2.3,2.15c-0.89,0.75-2.16,2.18-3.4,2.13
			C212.28,99.14,212.28,99.97,212.8,100z"/>
		<path d="M212.86,99.56c2.35-1.52,4.54-3.26,6.59-5.16c0.39-0.36-0.19-0.97-0.58-0.58c-1.99,1.88-4.12,3.56-6.42,5.05
			C211.97,99.12,212.42,99.83,212.86,99.56z"/>
		<path d="M196.59,59.6c-1.55,7.04-2.43,14.19-2.63,21.4c0,0.41,0.55,0.55,0.77,0.22c1.08-1.71,2.16-3.45,3.24-5.16
			c0.28-0.44-0.44-0.88-0.72-0.41c-1.08,1.71-2.16,3.45-3.24,5.16c0.25,0.08,0.53,0.14,0.77,0.22c0.19-7.12,1.08-14.22,2.6-21.18
			C197.5,59.3,196.7,59.08,196.59,59.6z"/>
		<path d="M197.7,91.38c-0.67-1.24-1.11-2.57-1.22-3.98c-0.08-0.99,0.14-5.03,2.02-3.42c1,0.86,0.86,2.73,0.89,3.98
			c0,0.58,0,1.19-0.06,1.77c-0.03,0.41-0.08,0.83-0.17,1.22c-0.72,0.5-1.27,0.47-1.63-0.06c-0.36-0.39-0.97,0.19-0.58,0.58
			c1.19,1.22,2.74,1.27,3.07-0.64c0.25-1.35,0.25-2.79,0.14-4.14c-0.08-1.08-0.08-2.62-0.88-3.45c-1.19-1.22-2.88-0.08-3.35,1.21
			c-0.86,2.32-0.03,5.25,1.08,7.35C197.22,92.27,197.94,91.85,197.7,91.38z"/>
		<path d="M203.42,66.53c0.83,3.89,5.95,4.2,7.47,0.61c0.19-0.5-0.61-0.72-0.8-0.22c-1.25,2.93-5.23,2.37-5.87-0.61
			C204.11,65.81,203.31,66.01,203.42,66.53z"/>
		<path d="M201.79,56.95c1.05-2.35,3.76-3.48,6.25-2.95c2.57,0.55,4.54,2.54,5.81,4.72c0.28,0.47,1,0.06,0.72-0.41
			c-1.47-2.51-3.79-4.75-6.78-5.19c-2.68-0.39-5.56,0.88-6.72,3.4C200.85,57.03,201.57,57.45,201.79,56.95z"/>
		<path d="M185.57,57.86c0.75-1.55,2.05-3.23,3.96-3.2c1.83,0.03,3.15,1.63,4.07,3.04c0.28,0.44,1,0.03,0.72-0.41
			c-1.05-1.68-2.63-3.42-4.79-3.45c-2.21-0.03-3.76,1.8-4.65,3.62C184.63,57.92,185.35,58.33,185.57,57.86z"/>
		<path d="M190.47,70.37c0.49,0,0.89-1.82,0.89-4.06c0-2.24-0.4-4.06-0.89-4.06s-0.88,1.82-0.88,4.06
			C189.59,68.55,189.98,70.37,190.47,70.37z"/>
		<path class="st3" d="M193.02,114.06c-0.08,1.02-0.19,2.43-0.25,4.06c-0.25,5.58-0.03,9.8,0.06,10.94
			c0.22,3.67,0.72,8.48,1.88,14.06c-1.11,1.27-2.77,3.15-4.9,5.36c-4.04,4.22-6.12,6.38-9.44,8.62c-3.71,2.49-6.28,3.26-7.66,3.62
			c-1.74,0.41-3.4,0.8-5.42,0.36c-3.29-0.75-5.26-3.18-5.98-4.12c-1.83-2.32-2.24-4.58-2.99-9c-0.55-3.23-0.66-5.69-0.83-10.44
			c-0.08-2.26-0.19-5.03-0.14-8.73c0.05-4.17,0.28-9.11,0.88-14.64c0.28-2.49,0.66-5.55,1.27-9.03c-0.47-0.66-0.97-1.33-1.49-2.02
			c-0.55-0.72-1.08-1.41-1.63-2.1c-1.41,1.19-2.79,2.4-4.21,3.59c-0.36,0.14-1,0.36-1.77,0.28c-1.47-0.14-2.32-1.16-2.63-1.49
			c-1.36-1.55-1.16-3.51-1.11-3.89c1.91-2.07,3.82-4.11,5.75-6.19c0.03-1.19,0.19-2.73,0.67-4.45c0.36-1.27,0.8-2.32,1.22-3.2
			c0.36-0.72,0.86-1.52,1.49-2.32c1.13-1.49,2.35-2.54,3.35-3.26c-0.8,0.36-1,0.36-1.05,0.3c-0.14-0.22,1.16-1.85,2.99-2.02
			c1.02-0.11,1.83,0.28,2.38,0.52c0.86,0.41,1.44,0.94,1.8,1.33c1.71-1.46,3.43-2.93,5.15-4.36c0.61,0.36,1.22,0.77,1.83,1.19
			c1.41,0.97,2.68,1.93,3.82,2.87c-0.41,0.52-0.94,1.1-1.6,1.68c-1.11,0.97-2.21,1.55-3.07,1.93c0.53,0.17,1.47,0.55,1.94,1.46
			c0.47,0.88,0.28,1.85,0,3.07c-0.19,0.83-0.44,1.49-0.64,1.93c0.11,1.16,0.17,2.73-0.17,4.5c-0.53,2.9-1.74,5.05-2.57,6.3
			c-0.03,1.08-0.06,2.76,0,4.83c0.22,8.53,1.47,13.53,2.27,19.83c0.47,3.59,0.94,8.92,0.8,15.63c0.64-0.41,1.55-1.08,2.57-1.93
			c2.6-2.18,4.26-4.36,6.45-7.57c2.16-3.12,3.57-5.44,5.48-8.53C188.7,121.01,190.61,117.95,193.02,114.06z"/>
		<path class="st6" d="M167.87,88.84c-0.58,1.27-1.16,2.57-1.74,3.89c-1.69,3.98-3.07,7.79-4.21,11.43
			c-0.25,5.74-0.39,10.55-0.5,14.03c-0.14,5.28,0.19,11.57,0.8,24.16c0.25,5.19,0.47,8.34,2.91,10.63c2.54,2.37,6.09,2.43,8.08,2.43
			c10.63-0.03,18.57-9.06,20.75-11.68c-2.96,5.03-6.34,8.31-8.63,10.24c-2.6,2.18-5.95,4.91-11.15,6.27
			c-4.4,1.16-6.39,0.91-6.92,0.8c-3.79-0.91-5.89-4.06-6.64-5.14c-1.8-2.68-2.38-5.47-2.71-11.46c-0.33-6.16,0.03-7.79,0.14-16.26
			c0.08-8.09-0.22-10.38,0.39-15.99c0.36-3.29,0.8-5.99,1.16-7.82c-1.08-1.13-2.16-2.26-3.24-3.37c-0.91,0.8-1.85,1.57-2.79,2.38
			c-0.61,0.52-1.25,1.05-1.85,1.55c-0.55,0.06-1.36,0.03-2.21-0.33c-2.21-0.94-3.6-3.67-2.9-4.61c0.44-0.64,1.6-0.14,3.21-0.14
			c2.77,0.03,4.62-1.38,8.3-4.03C160.7,93.93,163.69,91.8,167.87,88.84z"/>
		<path d="M192.66,113.83c-6.39,8.81-11.12,18.92-19.2,26.43c-0.39,0.36,0.19,0.94,0.58,0.58c8.14-7.57,12.89-17.73,19.34-26.59
			C193.71,113.83,192.99,113.42,192.66,113.83z"/>
		<path d="M168.86,161.69c10.96-0.72,18.82-9.89,25.4-17.67c0.33-0.41-0.25-0.99-0.58-0.58c-6.39,7.62-14.14,16.73-24.79,17.45
			C168.34,160.89,168.34,161.72,168.86,161.69z"/>
		<path d="M163.66,83.9c0.06,2.18,1.49,4.06,3.6,4.67c0.53,0.14,0.75-0.66,0.22-0.8c-1.74-0.5-2.93-2.07-2.99-3.87
			C164.46,83.38,163.63,83.38,163.66,83.9z"/>
		<path d="M164.52,83.65c0.28-2.4,4.57-0.66,5.73-0.06c1.13,0.58,2.27,1.16,2.52,2.54c0.19,1.05-0.14,2.15-0.41,3.18
			c-0.14,0.52,0.66,0.75,0.8,0.22c0.39-1.38,0.8-2.95,0.22-4.31c-0.55-1.38-2.08-2.02-3.32-2.62c-1.27-0.61-2.66-1.05-4.1-0.88
			c-0.58,0.08-1.33,0.22-1.8,0.61c-0.5,0.39-0.39,0.66-0.47,1.35C163.63,84.18,164.46,84.18,164.52,83.65z"/>
		<path d="M172.07,89.15c-0.08,2.1,0.39,4.14-0.11,6.24c-0.47,1.93-1.41,3.73-2.35,5.47c-0.25,0.47,0.47,0.88,0.72,0.41
			c0.97-1.82,1.94-3.67,2.43-5.66c0.53-2.15,0.05-4.28,0.14-6.46C172.93,88.6,172.1,88.6,172.07,89.15z"/>
		<path d="M169.61,100.88c-0.64,14.55,3.54,28.8,2.88,43.36c-0.03,0.52,0.8,0.52,0.83,0c0.66-14.55-3.51-28.8-2.88-43.36
			C170.47,100.36,169.64,100.36,169.61,100.88z"/>
		<path d="M156.02,101.19c0.83,1.16,1.71,2.26,2.71,3.29c0.36,0.39,0.94-0.19,0.58-0.58c-0.94-0.99-1.8-2.02-2.57-3.12
			C156.41,100.33,155.69,100.75,156.02,101.19z"/>
		<path d="M159.2,104.25c-1.58,8.97-2.35,18.09-2.32,27.2c0.03,4.53,0.25,9.08,0.69,13.59c0.36,3.84,0.8,7.87,2.82,11.24
			c1.83,3.06,5.04,5.38,8.69,5.3c0.53-0.03,0.53-0.86,0-0.83c-5.12,0.14-8.41-4.42-9.6-8.89c-1.33-4.91-1.44-10.27-1.63-15.33
			c-0.42-10.71,0.33-21.48,2.19-32.03C160.09,103.95,159.29,103.73,159.2,104.25z"/>
		<path d="M153.97,91.85c-2.6,2.18-5.12,4.47-7.5,6.88c-0.39,0.39,0.22,0.97,0.58,0.58c2.41-2.4,4.9-4.69,7.5-6.88
			C154.97,92.1,154.39,91.52,153.97,91.85z"/>
		<path d="M146.23,99.48c-0.41,3.2,2.02,5.91,5.26,5.88c0.53,0,0.53-0.83,0-0.83c-2.79,0.03-4.79-2.32-4.43-5.05
			C147.14,98.95,146.31,98.95,146.23,99.48z"/>
		<path d="M147,99.28c2.9,0.08,4.92,2.68,4.32,5.5c-0.11,0.53,0.69,0.75,0.8,0.22c0.75-3.4-1.63-6.43-5.12-6.54
			C146.48,98.45,146.48,99.28,147,99.28z"/>
		<path d="M152.45,104.86c3.15-2.87,6.36-5.72,9.44-8.67c1.41-1.35,2.77-2.73,4.04-4.22c0.69-0.8,2.44-2.37,2.46-3.48
			c0-0.14-0.08-0.3-0.19-0.36c-0.06-0.03-0.11-0.06-0.14-0.06c-0.17-0.08-0.39-0.08-0.5,0.06c-0.03,0.03-0.06,0.06-0.08,0.11
			c-0.33,0.41,0.25,0.99,0.58,0.58c0.03-0.03,0.05-0.06,0.08-0.11c-0.17,0.03-0.33,0.06-0.5,0.06c-0.06-0.25-0.14-0.25-0.25,0.03
			c-0.14,0.19-0.28,0.39-0.44,0.58c-0.33,0.41-0.64,0.83-1,1.24c-0.55,0.69-1.16,1.35-1.74,2.02c-1.22,1.33-2.49,2.57-3.79,3.78
			c-2.82,2.65-5.7,5.22-8.55,7.84C151.46,104.64,152.07,105.22,152.45,104.86z"/>
		<path d="M152.81,93.4c0.19-1.33,0.39-2.65,0.58-3.98c0.14-0.99,0.25-2.1,0.8-2.98c1.27-2.04,3.07-0.58,4.04,0.8
			c0.41,0.58,0.8,1.22,1.22,1.79c0.22,0.33,1.3,1.52,1.16,1.93c0.14-0.11,0.28-0.19,0.39-0.3c-0.06,0-0.08,0-0.14,0
			c-0.53-0.03-0.53,0.8,0,0.83c0.06,0,0.08,0,0.14,0c0.19,0,0.36-0.14,0.39-0.3c0.19-0.69-0.28-1.1-0.64-1.66
			c-0.69-1.02-1.36-2.07-2.08-3.07c-0.75-1.02-1.71-2.02-3.1-1.88c-1.33,0.14-2.13,1.16-2.55,2.35c-0.69,1.96-0.75,4.2-1.05,6.24
			C151.93,93.7,152.73,93.93,152.81,93.4z"/>
		<path d="M154.11,90.28c0.75,1.46,1.99,2.95,3.76,3.07c1.47,0.11,2.85-0.72,3.24-2.15c0.14-0.52-0.66-0.75-0.8-0.22
			c-0.36,1.33-1.83,1.82-3.04,1.41c-1.16-0.41-1.91-1.44-2.43-2.49C154.58,89.4,153.86,89.81,154.11,90.28z"/>
		<path d="M155.14,84.9c0.14-1.35,1.69-1.71,2.74-1.35c1.11,0.36,1.96,1.35,2.74,2.15c0.61,0.64,1.8,1.52,1.96,2.4
			c0.22,1.19-1.27,1.99-2.27,2.29c-0.5,0.14-0.31,0.94,0.22,0.8c1.22-0.36,2.99-1.44,3.18-2.87c0.08-0.58-0.28-0.88-0.66-1.3
			c-0.78-0.83-1.52-1.63-2.32-2.43c-1.08-1.1-2.46-2.29-4.12-2.02c-1.24,0.19-2.16,1.02-2.3,2.29
			C154.25,85.42,155.08,85.42,155.14,84.9z"/>
		<path d="M156.63,82.85c0.39-0.44,0.58-1.02,0.94-1.46c0.89-1.1,2.27-0.08,3.18,0.58c1.77,1.24,3.65,3.51,2.05,5.66
			c-0.3,0.44,0.42,0.86,0.72,0.41c1.71-2.32,0.03-5-1.94-6.49c-0.91-0.69-2.3-1.93-3.54-1.57c-1.11,0.3-1.3,1.57-1.99,2.32
			C155.69,82.66,156.27,83.24,156.63,82.85z"/>
		<path d="M159.43,80.34c0.97-1.19,2.24-2.43,3.74-1.19c1,0.8,1.63,1.93,1.99,3.12c0.17,0.5,0.94,0.3,0.8-0.22
			c-0.47-1.6-1.55-3.45-3.15-4.11c-1.63-0.66-2.99,0.64-3.96,1.82C158.51,80.15,159.09,80.75,159.43,80.34z"/>
		<path d="M165.54,80.45c1.71-1.46,3.43-2.93,5.15-4.36c0.42-0.36-0.19-0.94-0.58-0.58c-1.71,1.46-3.43,2.93-5.15,4.36
			C164.54,80.23,165.15,80.81,165.54,80.45z"/>
		<path d="M171.66,83.98c1.63-1.19,3.21-2.46,4.68-3.84c0.39-0.36-0.19-0.94-0.58-0.58c-1.44,1.33-2.93,2.57-4.51,3.7
			C170.8,83.57,171.21,84.29,171.66,83.98z"/>
		<path class="st7" d="M184.08,81.91c9.23,0,16.71-7.47,16.71-16.68s-7.48-16.68-16.71-16.68c-9.23,0-16.71,7.47-16.71,16.68
			S174.85,81.91,184.08,81.91z"/>
		<path d="M173.95,67.28c6.14-3.92,12.42-7.62,18.84-11.1c0.47-0.25,0.06-0.97-0.41-0.72c-6.42,3.45-12.7,7.15-18.84,11.1
			C173.1,66.86,173.51,67.58,173.95,67.28z"/>
		<path d="M174.64,74.51c5.06-3.7,10.18-7.26,15.41-10.74c0.44-0.3,0.03-1.02-0.42-0.72c-5.2,3.48-10.35,7.07-15.41,10.74
			C173.79,74.1,174.2,74.82,174.64,74.51z"/>
	</g>
</g>
</svg>
