<?xml version="1.0" encoding="utf-8"?>
<!-- Generator: Adobe Illustrator 26.0.1, SVG Export Plug-In . SVG Version: 6.00 Build 0)  -->
<svg version="1.1" id="Capa_1" xmlns="http://www.w3.org/2000/svg" xmlns:xlink="http://www.w3.org/1999/xlink" x="0px" y="0px"
	 viewBox="0 0 396.85 36.9" style="enable-background:new 0 0 396.85 36.9;" xml:space="preserve">
<style type="text/css">
	.st0{fill:#EE8600;}
</style>
<g>
	<g>
		<g>
			<path class="st0" d="M2.16,27.81V4.15c0-1.02,0.36-1.87,1.07-2.53c0.71-0.66,1.53-0.99,2.45-0.99h8.09
				c1.81,0,3.47,0.21,4.99,0.63s2.85,1.08,3.98,1.98c1.13,0.9,2.02,2.05,2.67,3.44c0.65,1.39,1,3.04,1.05,4.95
				c0.03,0.38,0.04,0.83,0.04,1.35c0,0.53,0,1.11,0,1.76c0,0.62,0,1.19,0,1.7c0,0.51-0.01,0.96-0.04,1.33
				c-0.24,7.36-4.41,11.04-12.5,11.04H3.17c-0.3,0-0.54-0.09-0.73-0.28C2.25,28.35,2.16,28.1,2.16,27.81z M13.76,22.79
				c1.75,0,3.02-0.42,3.8-1.27c0.78-0.85,1.19-2.12,1.21-3.82c0.03-0.38,0.05-0.82,0.06-1.31c0.01-0.5,0.02-1.06,0.02-1.68
				c0-0.62-0.01-1.18-0.02-1.68c-0.01-0.5-0.03-0.94-0.06-1.31c-0.08-3.37-1.82-5.05-5.22-5.05H7.49c0.62,0,1.15,0.22,1.58,0.67
				C9.5,7.77,9.72,8.25,9.72,8.76v12.78c0,0.35,0.11,0.65,0.34,0.89c0.23,0.24,0.53,0.36,0.91,0.36H13.76z"/>
			<path d="M31.07,18.1V4.11c0-0.57,0.11-1.06,0.34-1.5c0.23-0.43,0.51-0.79,0.85-1.09C32.6,1.23,32.98,1,33.4,0.85
				c0.42-0.15,0.82-0.22,1.19-0.22h3.03c0.3,0,0.55,0.09,0.75,0.28c0.2,0.19,0.3,0.43,0.3,0.73v16.38c0,1.54,0.36,2.75,1.07,3.64
				c0.71,0.89,1.88,1.33,3.5,1.33c1.62,0,2.78-0.44,3.5-1.33c0.71-0.89,1.07-2.1,1.07-3.64V4.07c0-0.57,0.11-1.06,0.34-1.5
				c0.23-0.43,0.52-0.79,0.87-1.09c0.35-0.3,0.73-0.51,1.13-0.65c0.4-0.13,0.8-0.2,1.17-0.2h3.03c0.3,0,0.55,0.09,0.75,0.28
				c0.2,0.19,0.3,0.43,0.3,0.73V18.1c0,1.91-0.29,3.57-0.87,4.95c-0.58,1.39-1.4,2.53-2.45,3.44c-1.05,0.9-2.33,1.58-3.82,2.02
				s-3.16,0.67-4.99,0.67c-1.81,0-3.46-0.22-4.97-0.65c-1.51-0.43-2.8-1.1-3.86-2c-1.07-0.9-1.89-2.06-2.49-3.46
				C31.37,21.67,31.07,20.02,31.07,18.1z"/>
			<path d="M58.49,28.57c-0.16-0.22-0.24-0.42-0.24-0.61c0-0.19,0.01-0.31,0.04-0.36l9.38-25.8c0.3-0.78,0.84-1.17,1.62-1.17h6.27
				c0.78,0,1.32,0.39,1.62,1.17l9.38,25.8c0.03,0.05,0.04,0.18,0.04,0.36c0,0.22-0.09,0.41-0.26,0.59
				c-0.18,0.18-0.37,0.26-0.59,0.26h-5.22c-0.67,0-1.13-0.3-1.37-0.89l-2.1-5.7c-0.97,0.38-1.96,0.69-2.95,0.93
				c-1,0.24-1.96,0.43-2.89,0.55c-0.93,0.12-1.8,0.2-2.61,0.24c-0.81,0.04-1.51,0.06-2.1,0.06c-0.38,0-0.69,0-0.95,0
				c-0.26,0-0.45-0.01-0.59-0.04c0.49,0.08,0.88,0.35,1.19,0.81c0.31,0.46,0.34,1,0.1,1.62l-0.57,1.54
				c-0.24,0.59-0.7,0.89-1.37,0.89h-5.22C58.9,28.82,58.7,28.74,58.49,28.57z M68.76,18.22c0.75-0.05,1.54-0.15,2.34-0.28
				c0.7-0.11,1.44-0.26,2.2-0.47c0.77-0.2,1.5-0.49,2.2-0.87l-3.11-8.9L68.76,18.22z"/>
			<path d="M89.87,27.69V3.99c0-0.51,0.1-0.98,0.3-1.42c0.2-0.43,0.47-0.79,0.81-1.09c0.34-0.3,0.71-0.53,1.13-0.71
				c0.42-0.18,0.84-0.26,1.27-0.26h3.15c0.3,0,0.53,0.09,0.69,0.28c0.19,0.19,0.28,0.43,0.28,0.73v19.61c0,0.22,0.11,0.48,0.32,0.79
				c0.22,0.31,0.53,0.47,0.93,0.47h10.84c0.3,0,0.55,0.09,0.75,0.26c0.2,0.18,0.3,0.42,0.3,0.75v4.29c0,0.32-0.1,0.57-0.3,0.75
				c-0.2,0.18-0.45,0.26-0.75,0.26H90.88c-0.24,0-0.47-0.11-0.69-0.32C89.97,28.16,89.87,27.93,89.87,27.69z"/>
			<path d="M114.05,27.73V4.07c0-1.02,0.35-1.87,1.05-2.53c0.7-0.66,1.52-0.99,2.47-0.99h3.24c0.32,0,0.57,0.09,0.73,0.28
				c0.19,0.19,0.28,0.43,0.28,0.73v26.16c0,0.27-0.1,0.5-0.28,0.69c-0.16,0.22-0.4,0.32-0.73,0.32h-5.74c-0.27,0-0.51-0.1-0.71-0.3
				C114.15,28.23,114.05,28,114.05,27.73z"/>
			<path d="M127.35,27.81V4.15c0-1.02,0.36-1.87,1.07-2.53c0.71-0.66,1.53-0.99,2.45-0.99h8.09c1.81,0,3.47,0.21,4.99,0.63
				c1.52,0.42,2.85,1.08,3.98,1.98c1.13,0.9,2.02,2.05,2.67,3.44c0.65,1.39,1,3.04,1.05,4.95c0.03,0.38,0.04,0.83,0.04,1.35
				c0,0.53,0,1.11,0,1.76c0,0.62,0,1.19,0,1.7c0,0.51-0.01,0.96-0.04,1.33c-0.24,7.36-4.41,11.04-12.5,11.04h-10.8
				c-0.3,0-0.54-0.09-0.73-0.28C127.45,28.35,127.35,28.1,127.35,27.81z M138.96,22.79c1.75,0,3.02-0.42,3.8-1.27
				c0.78-0.85,1.19-2.12,1.21-3.82c0.03-0.38,0.05-0.82,0.06-1.31c0.01-0.5,0.02-1.06,0.02-1.68c0-0.62-0.01-1.18-0.02-1.68
				c-0.01-0.5-0.03-0.94-0.06-1.31c-0.08-3.37-1.82-5.05-5.22-5.05h-6.07c0.62,0,1.15,0.22,1.58,0.67c0.43,0.44,0.65,0.92,0.65,1.44
				v12.78c0,0.35,0.11,0.65,0.34,0.89c0.23,0.24,0.53,0.36,0.91,0.36H138.96z"/>
			<path d="M154.24,28.57c-0.16-0.22-0.24-0.42-0.24-0.61c0-0.19,0.01-0.31,0.04-0.36l9.38-25.8c0.3-0.78,0.84-1.17,1.62-1.17h6.27
				c0.78,0,1.32,0.39,1.62,1.17l9.38,25.8c0.03,0.05,0.04,0.18,0.04,0.36c0,0.22-0.09,0.41-0.26,0.59
				c-0.18,0.18-0.37,0.26-0.59,0.26h-5.22c-0.67,0-1.13-0.3-1.37-0.89l-2.1-5.7c-0.97,0.38-1.96,0.69-2.95,0.93
				c-1,0.24-1.96,0.43-2.89,0.55c-0.93,0.12-1.8,0.2-2.61,0.24c-0.81,0.04-1.51,0.06-2.1,0.06c-0.38,0-0.69,0-0.95,0
				c-0.26,0-0.45-0.01-0.59-0.04c0.49,0.08,0.88,0.35,1.19,0.81c0.31,0.46,0.34,1,0.1,1.62l-0.57,1.54
				c-0.24,0.59-0.7,0.89-1.37,0.89h-5.22C154.66,28.82,154.46,28.74,154.24,28.57z M164.51,18.22c0.75-0.05,1.54-0.15,2.34-0.28
				c0.7-0.11,1.44-0.26,2.2-0.47c0.77-0.2,1.5-0.49,2.2-0.87l-3.11-8.9L164.51,18.22z"/>
			<path d="M185.54,27.81V4.15c0-1.02,0.36-1.87,1.07-2.53c0.71-0.66,1.53-0.99,2.45-0.99h8.09c1.81,0,3.47,0.21,4.99,0.63
				c1.52,0.42,2.85,1.08,3.98,1.98c1.13,0.9,2.02,2.05,2.67,3.44c0.65,1.39,1,3.04,1.05,4.95c0.03,0.38,0.04,0.83,0.04,1.35
				c0,0.53,0,1.11,0,1.76c0,0.62,0,1.19,0,1.7c0,0.51-0.01,0.96-0.04,1.33c-0.24,7.36-4.41,11.04-12.5,11.04h-10.8
				c-0.3,0-0.54-0.09-0.73-0.28C185.64,28.35,185.54,28.1,185.54,27.81z M197.15,22.79c1.75,0,3.02-0.42,3.8-1.27
				c0.78-0.85,1.19-2.12,1.21-3.82c0.03-0.38,0.05-0.82,0.06-1.31c0.01-0.5,0.02-1.06,0.02-1.68c0-0.62-0.01-1.18-0.02-1.68
				c-0.01-0.5-0.03-0.94-0.06-1.31c-0.08-3.37-1.82-5.05-5.22-5.05h-6.07c0.62,0,1.15,0.22,1.58,0.67c0.43,0.44,0.65,0.92,0.65,1.44
				v12.78c0,0.35,0.11,0.65,0.34,0.89c0.23,0.24,0.53,0.36,0.91,0.36H197.15z"/>
		</g>
	</g>
	<g>
		<g>
			<path class="st0" d="M231.1,1.91c0,0.14-0.02,0.28-0.07,0.42c-0.05,0.14-0.09,0.27-0.14,0.38l-9.19,23.48
				c-0.14,0.32-0.39,0.49-0.76,0.49h-1.46c-0.3,0-0.57-0.03-0.81-0.09c-0.24-0.06-0.36-0.21-0.36-0.47c0-0.12,0.06-0.31,0.17-0.59
				l9.15-23.86c0.05-0.12,0.14-0.23,0.28-0.35c0.14-0.12,0.3-0.17,0.49-0.17c0.3,0,0.61,0.02,0.92,0.07c0.31,0.05,0.6,0.1,0.87,0.17
				s0.49,0.15,0.66,0.24C231.01,1.72,231.1,1.82,231.1,1.91z"/>
			<path class="st0" d="M245.7,27.46c-0.97,0-1.94-0.12-2.91-0.35c-0.97-0.23-1.84-0.6-2.62-1.11c-0.78-0.51-1.41-1.16-1.91-1.96
				c-0.5-0.8-0.75-1.75-0.75-2.86c0-0.99,0.17-1.88,0.52-2.67c0.35-0.79,0.78-1.49,1.3-2.12c0.52-0.62,1.09-1.16,1.7-1.6
				c0.61-0.44,1.18-0.81,1.72-1.11c0.53-0.3,0.99-0.53,1.37-0.68c0.38-0.15,0.61-0.24,0.68-0.26c-0.02,0-0.15-0.06-0.38-0.19
				c-0.23-0.13-0.49-0.32-0.76-0.59c-0.28-0.27-0.54-0.61-0.8-1.02c-0.25-0.42-0.43-0.92-0.52-1.53c-1.76-0.16-3.07-0.51-3.94-1.04
				c-0.87-0.53-1.3-1.21-1.3-2.04c0-0.58,0.17-1.14,0.5-1.7c0.33-0.55,0.73-1.05,1.2-1.49c0.46-0.44,0.93-0.8,1.4-1.08
				s0.84-0.42,1.09-0.42c0.12,0,0.2,0.03,0.24,0.1c0.05,0.07,0.07,0.14,0.07,0.21c0,0.12-0.1,0.32-0.31,0.61
				c-0.21,0.29-0.31,0.64-0.31,1.06c0,0.55,0.16,1.07,0.49,1.54c0.32,0.47,0.77,0.9,1.35,1.27c0.37-0.72,0.9-1.39,1.58-2.01
				c0.68-0.62,1.45-1.17,2.29-1.63s1.74-0.82,2.69-1.08c0.95-0.25,1.87-0.38,2.77-0.38c0.62,0,1.21,0.08,1.75,0.23
				c0.54,0.15,1.02,0.36,1.42,0.62c0.4,0.27,0.72,0.59,0.95,0.97c0.23,0.38,0.35,0.8,0.35,1.27c0,0.6-0.23,1.18-0.69,1.73
				c-0.46,0.55-1.13,1.06-1.99,1.51c-0.87,0.45-1.91,0.83-3.14,1.14c-1.23,0.31-2.6,0.51-4.13,0.61c0.02,0.39,0.08,0.75,0.16,1.06
				c0.08,0.31,0.18,0.58,0.29,0.81c0.12,0.25,0.24,0.5,0.38,0.73c0.19-0.02,0.4-0.06,0.66-0.1c0.21-0.02,0.46-0.05,0.75-0.07
				c0.29-0.02,0.62-0.03,0.99-0.03c1.36,0,2.05,0.4,2.05,1.21c0,0.35-0.2,0.7-0.61,1.06c-0.4,0.36-0.94,0.54-1.61,0.54
				c-0.42,0-0.8-0.03-1.14-0.09c-0.35-0.06-0.65-0.13-0.9-0.23c-0.28-0.09-0.53-0.21-0.76-0.35c-0.86,0.51-1.62,1.11-2.29,1.8
				c-0.58,0.6-1.1,1.34-1.58,2.22c-0.47,0.88-0.71,1.91-0.71,3.09c0,1.46,0.39,2.54,1.18,3.24c0.79,0.71,1.91,1.06,3.36,1.06
				c1.25,0,2.43-0.35,3.54-1.04c1.11-0.69,2.06-1.64,2.84-2.84c0.02-0.07,0.08-0.15,0.17-0.24c0.05-0.05,0.12-0.1,0.21-0.16
				s0.2-0.09,0.31-0.09c0.21,0,0.38,0.07,0.52,0.21s0.21,0.3,0.21,0.49c0,0.12-0.05,0.29-0.14,0.52c-0.05,0.09-0.09,0.19-0.14,0.28
				c-0.37,0.62-0.83,1.23-1.39,1.82c-0.55,0.59-1.2,1.12-1.92,1.58c-0.73,0.46-1.54,0.84-2.44,1.13
				C247.74,27.32,246.76,27.46,245.7,27.46z M252.04,2.84c-0.53,0-1.06,0.12-1.59,0.35c-0.53,0.23-1.03,0.55-1.49,0.95
				c-0.46,0.4-0.88,0.89-1.25,1.46c-0.37,0.57-0.65,1.18-0.83,1.86c0.99,0,1.91-0.08,2.76-0.24c0.84-0.16,1.58-0.39,2.2-0.69
				c0.62-0.3,1.11-0.66,1.46-1.08s0.52-0.88,0.52-1.39c0-0.37-0.17-0.66-0.52-0.88S252.53,2.84,252.04,2.84z"/>
			<path class="st0" d="M265.39,23.16c0,0.39,0.1,0.71,0.29,0.95c0.2,0.24,0.47,0.36,0.81,0.36c0.46,0,0.92-0.15,1.37-0.45
				c0.45-0.3,0.85-0.65,1.2-1.04c0.42-0.42,0.8-0.91,1.14-1.49c0.02-0.07,0.08-0.15,0.17-0.24c0.05-0.05,0.12-0.1,0.21-0.16
				c0.09-0.06,0.2-0.09,0.31-0.09c0.19,0,0.35,0.07,0.5,0.21s0.23,0.3,0.23,0.49c0,0.09-0.02,0.18-0.05,0.26
				c-0.04,0.08-0.08,0.17-0.12,0.26c-0.05,0.09-0.09,0.2-0.14,0.31c-0.51,0.81-1.08,1.53-1.7,2.15c-0.53,0.53-1.16,1.02-1.89,1.46
				c-0.73,0.44-1.52,0.66-2.38,0.66c-1.32,0-2.38-0.34-3.19-1.02c-0.81-0.68-1.21-1.51-1.21-2.48c0-0.72,0.09-1.4,0.28-2.06
				c0.18-0.66,0.39-1.3,0.61-1.92c0.22-0.62,0.42-1.22,0.61-1.79c0.18-0.57,0.28-1.12,0.28-1.65c0-0.16-0.07-0.29-0.21-0.4
				c-0.14-0.1-0.3-0.16-0.49-0.16c-0.53,0-1.1,0.25-1.72,0.75c-0.61,0.5-1.19,1.21-1.73,2.15c-0.54,0.94-0.99,2.07-1.35,3.4
				c-0.36,1.33-0.54,2.83-0.54,4.49c0,0.3-0.06,0.49-0.19,0.57c-0.13,0.08-0.32,0.12-0.57,0.12c-0.92,0-1.7-0.18-2.32-0.54
				c-0.62-0.36-0.94-0.82-0.94-1.37c0-0.97,0.11-1.99,0.33-3.07c0.22-1.08,0.48-2.12,0.78-3.12c0.3-1.01,0.61-1.94,0.92-2.79
				c0.31-0.86,0.57-1.53,0.78-2.01c0.19-0.44,0.5-0.66,0.94-0.66c0.25,0,0.59,0.1,1.01,0.31c0.42,0.21,0.89,0.73,1.42,1.56
				c0.49-0.42,1.03-0.79,1.63-1.11c0.51-0.28,1.09-0.53,1.73-0.76c0.65-0.23,1.34-0.35,2.08-0.35c0.37,0,0.73,0.09,1.09,0.28
				c0.36,0.18,0.68,0.42,0.95,0.71c0.28,0.29,0.5,0.61,0.66,0.95c0.16,0.35,0.24,0.69,0.24,1.04c0,0.53-0.1,1.09-0.29,1.68
				c-0.2,0.59-0.41,1.2-0.62,1.82c-0.22,0.62-0.43,1.25-0.62,1.89C265.49,21.91,265.39,22.54,265.39,23.16z"/>
			<path class="st0" d="M284.15,22.54c-0.6,0.81-1.28,1.53-2.05,2.15c-0.67,0.53-1.49,1.02-2.44,1.46
				c-0.96,0.44-2.06,0.66-3.31,0.66c-0.74,0-1.49-0.09-2.24-0.28c-0.75-0.18-1.43-0.49-2.03-0.9c-0.6-0.42-1.09-0.96-1.46-1.63
				c-0.37-0.67-0.55-1.49-0.55-2.46c0-1.16,0.24-2.26,0.71-3.31c0.47-1.05,1.09-1.97,1.84-2.76c0.75-0.79,1.59-1.41,2.51-1.87
				c0.92-0.46,1.83-0.69,2.71-0.69c0.62,0,1.18,0.1,1.66,0.29c0.49,0.2,0.9,0.46,1.23,0.78c0.33,0.32,0.59,0.69,0.78,1.09
				c0.18,0.4,0.28,0.8,0.28,1.2c0,0.3-0.06,0.61-0.19,0.92c-0.13,0.31-0.29,0.59-0.5,0.85c-0.21,0.25-0.43,0.46-0.68,0.62
				s-0.48,0.24-0.71,0.24c-0.46,0-0.87-0.14-1.23-0.43c-0.36-0.29-0.54-0.63-0.54-1.02c0-0.3,0.07-0.54,0.21-0.73
				c0.14-0.18,0.29-0.35,0.47-0.5c0.17-0.15,0.33-0.29,0.49-0.42c0.15-0.13,0.23-0.28,0.23-0.47c0-0.18-0.1-0.35-0.29-0.5
				c-0.2-0.15-0.43-0.23-0.71-0.23c-0.51,0-1,0.19-1.47,0.57c-0.47,0.38-0.9,0.88-1.27,1.51c-0.37,0.62-0.67,1.32-0.9,2.1
				c-0.23,0.77-0.35,1.55-0.35,2.34c0,1.2,0.33,2.09,0.99,2.67c0.66,0.58,1.47,0.87,2.45,0.87c0.79,0,1.5-0.16,2.15-0.49
				c0.65-0.32,1.2-0.68,1.67-1.07c0.55-0.46,1.04-0.99,1.46-1.6c0.05-0.07,0.12-0.15,0.21-0.24c0.07-0.05,0.15-0.1,0.24-0.16
				c0.09-0.06,0.2-0.09,0.31-0.09c0.21,0,0.38,0.07,0.52,0.21s0.21,0.3,0.21,0.49c0,0.09-0.02,0.18-0.07,0.26
				c-0.05,0.08-0.09,0.17-0.14,0.26C284.26,22.32,284.2,22.42,284.15,22.54z"/>
			<path class="st0" d="M291.82,23.27c0,0.39,0.1,0.69,0.31,0.9c0.21,0.21,0.49,0.31,0.83,0.31c0.46,0,0.92-0.15,1.37-0.45
				c0.45-0.3,0.85-0.65,1.2-1.04c0.42-0.42,0.8-0.91,1.14-1.49c0.02-0.07,0.08-0.15,0.17-0.24c0.05-0.05,0.12-0.1,0.21-0.16
				c0.09-0.06,0.2-0.09,0.31-0.09c0.18,0,0.35,0.07,0.5,0.21c0.15,0.14,0.22,0.3,0.22,0.49c0,0.09-0.02,0.18-0.05,0.26
				c-0.03,0.08-0.08,0.17-0.12,0.26c-0.05,0.09-0.09,0.2-0.14,0.31c-0.51,0.81-1.08,1.53-1.7,2.15c-0.53,0.53-1.16,1.02-1.89,1.46
				c-0.73,0.44-1.52,0.66-2.38,0.66c-0.67,0-1.27-0.09-1.8-0.28c-0.53-0.18-0.99-0.43-1.39-0.75c-0.39-0.31-0.69-0.68-0.9-1.09
				c-0.21-0.42-0.31-0.87-0.31-1.35c0-0.76,0.12-1.48,0.35-2.15c0.23-0.67,0.48-1.28,0.75-1.84c0.27-0.55,0.51-1.05,0.75-1.47
				c0.23-0.43,0.35-0.78,0.35-1.06c0-0.18-0.11-0.32-0.33-0.42c-0.22-0.09-0.46-0.17-0.71-0.24c-0.3-0.07-0.65-0.13-1.04-0.17
				c-0.67,1.69-1.31,3.07-1.91,4.14c-0.6,1.08-1.09,1.88-1.46,2.41c-0.05,0.07-0.13,0.17-0.26,0.31s-0.29,0.21-0.5,0.21
				c-0.19,0-0.35-0.07-0.5-0.23c-0.15-0.15-0.23-0.32-0.23-0.5c0-0.16,0.05-0.32,0.16-0.47c0.1-0.15,0.18-0.27,0.23-0.36
				c0.32-0.46,0.78-1.2,1.37-2.2c0.59-1.01,1.14-2.33,1.65-3.97c-0.23-0.16-0.43-0.37-0.59-0.62c-0.14-0.21-0.27-0.47-0.38-0.8
				c-0.12-0.32-0.17-0.71-0.17-1.14c0-0.35,0.06-0.68,0.19-0.99c0.13-0.31,0.29-0.58,0.5-0.81c0.21-0.23,0.43-0.42,0.66-0.55
				c0.23-0.14,0.45-0.21,0.66-0.21c0.23,0,0.47,0.06,0.73,0.19c0.25,0.13,0.49,0.28,0.69,0.45c0.21,0.17,0.38,0.37,0.52,0.59
				c0.14,0.22,0.21,0.41,0.21,0.57c0,0.46-0.08,0.84-0.22,1.14c-0.15,0.3-0.23,0.59-0.23,0.87c0,0.25,0.14,0.44,0.42,0.55
				c0.28,0.12,0.62,0.17,1.04,0.17c0.39,0,0.72-0.02,0.99-0.07c0.27-0.05,0.5-0.1,0.71-0.16c0.21-0.06,0.4-0.11,0.59-0.16
				c0.18-0.05,0.38-0.07,0.59-0.07c0.42,0,0.76,0.16,1.02,0.49c0.27,0.32,0.4,0.72,0.4,1.18c0,0.39-0.13,0.86-0.4,1.4
				c-0.27,0.54-0.56,1.14-0.88,1.79c-0.32,0.65-0.62,1.32-0.88,2.03C291.95,21.87,291.82,22.57,291.82,23.27z"/>
			<path class="st0" d="M300.62,23.16c0,0.39,0.1,0.71,0.29,0.95c0.2,0.24,0.47,0.36,0.81,0.36c0.46,0,0.92-0.15,1.37-0.45
				c0.45-0.3,0.85-0.65,1.2-1.04c0.42-0.42,0.8-0.91,1.14-1.49c0.02-0.07,0.08-0.15,0.17-0.24c0.05-0.05,0.12-0.1,0.21-0.16
				c0.09-0.06,0.2-0.09,0.31-0.09c0.18,0,0.35,0.07,0.5,0.21s0.23,0.3,0.23,0.49c0,0.09-0.02,0.18-0.05,0.26s-0.08,0.17-0.12,0.26
				c-0.05,0.09-0.09,0.2-0.14,0.31c-0.51,0.81-1.08,1.53-1.7,2.15c-0.53,0.53-1.16,1.02-1.89,1.46c-0.73,0.44-1.52,0.66-2.38,0.66
				c-1.32,0-2.38-0.35-3.19-1.06c-0.81-0.71-1.21-1.62-1.21-2.76c0-0.62,0.1-1.37,0.31-2.25c0.21-0.88,0.45-1.77,0.73-2.67
				s0.57-1.76,0.88-2.57c0.31-0.81,0.57-1.46,0.78-1.94c0.09-0.18,0.22-0.34,0.38-0.47c0.16-0.13,0.35-0.19,0.55-0.19
				c0.25,0,0.54,0.08,0.87,0.24c0.32,0.16,0.62,0.35,0.9,0.55c0.28,0.21,0.51,0.42,0.69,0.64c0.18,0.22,0.28,0.4,0.28,0.54
				c0,0.53-0.1,1.1-0.31,1.72c-0.21,0.61-0.43,1.27-0.68,1.96c-0.24,0.69-0.46,1.43-0.66,2.2
				C300.72,21.53,300.62,22.33,300.62,23.16z M305.62,6.49c0,0.46-0.08,0.91-0.23,1.33c-0.15,0.43-0.36,0.81-0.62,1.14
				c-0.27,0.34-0.57,0.6-0.9,0.8c-0.34,0.2-0.69,0.29-1.06,0.29c-0.51,0-0.95-0.17-1.32-0.52c-0.37-0.35-0.56-0.83-0.56-1.46
				c0-0.44,0.08-0.87,0.24-1.28c0.16-0.42,0.38-0.79,0.64-1.13c0.27-0.33,0.57-0.6,0.92-0.8c0.35-0.2,0.72-0.29,1.11-0.29
				c0.51,0,0.93,0.17,1.27,0.52C305.45,5.44,305.62,5.91,305.62,6.49z"/>
			<path class="st0" d="M322.68,22.54c-0.39,0.58-0.89,1.07-1.49,1.49c-0.51,0.39-1.14,0.74-1.89,1.04
				c-0.75,0.3-1.64,0.45-2.65,0.45c-0.16,0-0.33,0-0.52-0.02c-0.18-0.01-0.37-0.03-0.55-0.05c-0.53,0.42-1.11,0.75-1.73,0.99
				c-0.62,0.24-1.28,0.36-1.98,0.36c-0.55,0-1.05-0.09-1.47-0.26c-0.43-0.17-0.79-0.38-1.09-0.61c-0.35-0.25-0.65-0.55-0.9-0.9
				c-0.21,0.51-0.42,1.19-0.64,2.03c-0.22,0.84-0.42,1.74-0.61,2.69c-0.19,0.95-0.34,1.88-0.45,2.81c-0.12,0.92-0.17,1.72-0.17,2.39
				c0,0.51-0.22,0.76-0.66,0.76c-0.32,0-0.67-0.04-1.04-0.12c-0.37-0.08-0.71-0.21-1.02-0.4c-0.31-0.19-0.57-0.44-0.78-0.76
				c-0.21-0.32-0.31-0.72-0.31-1.18c0-0.42,0.08-1.07,0.24-1.96c0.16-0.89,0.37-1.91,0.62-3.07c0.25-1.16,0.55-2.4,0.9-3.73
				c0.35-1.33,0.7-2.65,1.06-3.95c0.36-1.31,0.72-2.54,1.08-3.69c0.36-1.16,0.69-2.14,0.99-2.95c0.19-0.44,0.51-0.66,0.97-0.66
				c0.25,0,0.58,0.1,0.99,0.31c0.4,0.21,0.87,0.73,1.4,1.56c0.49-0.42,0.98-0.79,1.49-1.11c0.44-0.28,0.92-0.53,1.44-0.76
				c0.52-0.23,1.05-0.35,1.58-0.35c0.62,0,1.19,0.13,1.7,0.4c0.51,0.27,0.94,0.61,1.3,1.02s0.64,0.88,0.85,1.39
				c0.21,0.51,0.31,1.02,0.31,1.53c0,0.97-0.21,2.06-0.64,3.26c-0.43,1.2-1.04,2.31-1.82,3.33c0.07,0.02,0.17,0.04,0.31,0.04
				c0.6,0,1.14-0.12,1.63-0.36c0.49-0.24,0.91-0.51,1.28-0.81c0.42-0.35,0.81-0.74,1.18-1.18c0.02-0.07,0.08-0.15,0.17-0.24
				c0.05-0.05,0.12-0.1,0.21-0.16c0.09-0.06,0.2-0.09,0.31-0.09c0.18,0,0.35,0.07,0.5,0.21s0.23,0.3,0.23,0.49
				c0,0.09-0.02,0.18-0.05,0.26c-0.04,0.08-0.08,0.17-0.12,0.26C322.77,22.32,322.72,22.42,322.68,22.54z M309.29,22.23
				c0,0.67,0.17,1.28,0.52,1.84s0.81,0.83,1.39,0.83c0.37,0,0.75-0.17,1.14-0.52c-0.12-0.16-0.17-0.32-0.17-0.49
				c0-0.18,0.06-0.37,0.19-0.57c0.13-0.2,0.28-0.38,0.45-0.54c0.17-0.16,0.36-0.3,0.56-0.42c0.2-0.12,0.36-0.17,0.5-0.17
				c0.23-0.46,0.44-0.94,0.62-1.44c0.18-0.5,0.34-0.98,0.47-1.46c0.13-0.47,0.23-0.91,0.29-1.32c0.07-0.4,0.1-0.75,0.1-1.02
				c0-0.62-0.1-1.06-0.29-1.32c-0.2-0.25-0.49-0.38-0.88-0.38c-0.46,0-0.97,0.25-1.53,0.75c-0.56,0.5-1.09,1.1-1.6,1.82
				s-0.93,1.47-1.27,2.27C309.46,20.89,309.29,21.6,309.29,22.23z"/>
			<path class="st0" d="M327.29,24.48c0.46,0,0.92-0.15,1.37-0.45c0.45-0.3,0.85-0.65,1.2-1.04c0.42-0.42,0.8-0.91,1.14-1.49
				c0.02-0.07,0.08-0.15,0.17-0.24c0.05-0.05,0.12-0.1,0.21-0.16c0.09-0.06,0.2-0.09,0.31-0.09c0.18,0,0.35,0.07,0.5,0.21
				s0.23,0.3,0.23,0.49c0,0.09-0.02,0.18-0.05,0.26c-0.04,0.08-0.08,0.17-0.12,0.26c-0.05,0.09-0.09,0.2-0.14,0.31
				c-0.51,0.81-1.07,1.53-1.7,2.15c-0.53,0.53-1.16,1.02-1.89,1.46c-0.73,0.44-1.52,0.66-2.38,0.66c-0.55,0-1.12-0.1-1.7-0.29
				s-1.1-0.48-1.58-0.85c-0.47-0.37-0.87-0.81-1.18-1.32c-0.31-0.51-0.47-1.06-0.47-1.66c0-0.49,0.06-1.08,0.17-1.79
				c0.12-0.71,0.28-1.47,0.49-2.31s0.44-1.71,0.71-2.64c0.27-0.92,0.55-1.84,0.85-2.74h-0.94c-0.19,0-0.28-0.1-0.28-0.31
				c0-0.18,0.11-0.43,0.33-0.75s0.46-0.47,0.71-0.47h0.69c0.35-0.95,0.69-1.82,1.02-2.62c0.33-0.8,0.66-1.47,0.99-2.03
				c0.09-0.19,0.22-0.34,0.38-0.47c0.16-0.13,0.35-0.19,0.55-0.19c0.25,0,0.54,0.08,0.85,0.24c0.31,0.16,0.61,0.35,0.88,0.57
				c0.28,0.22,0.51,0.45,0.69,0.68c0.18,0.23,0.28,0.43,0.28,0.59c0,0.16-0.11,0.53-0.33,1.09c-0.22,0.57-0.49,1.28-0.81,2.13h2.32
				c0.18,0,0.28,0.1,0.28,0.31c0,0.09-0.03,0.21-0.1,0.35c-0.07,0.14-0.16,0.27-0.26,0.4c-0.1,0.13-0.21,0.24-0.33,0.33
				c-0.12,0.09-0.23,0.14-0.35,0.14h-2.15c-0.28,0.76-0.56,1.57-0.85,2.43c-0.29,0.86-0.55,1.7-0.78,2.53
				c-0.23,0.83-0.42,1.64-0.57,2.41c-0.15,0.78-0.23,1.47-0.23,2.1c0,0.53,0.18,0.96,0.54,1.3
				C326.35,24.31,326.78,24.48,327.29,24.48z"/>
			<path class="st0" d="M348.58,22.54c-0.51,0.81-1.07,1.53-1.7,2.15c-0.53,0.53-1.16,1.02-1.89,1.46
				c-0.73,0.44-1.52,0.66-2.38,0.66c-0.97,0-1.79-0.25-2.46-0.75c-0.67-0.5-1.06-1.23-1.18-2.2c-0.46,0.58-0.96,1.08-1.49,1.49
				c-0.46,0.37-0.98,0.71-1.56,1c-0.58,0.3-1.2,0.45-1.87,0.45c-0.46,0-0.91-0.09-1.33-0.26c-0.43-0.17-0.8-0.42-1.11-0.75
				c-0.31-0.32-0.56-0.7-0.75-1.14c-0.18-0.44-0.28-0.92-0.28-1.46c0-1.25,0.24-2.48,0.71-3.71c0.47-1.22,1.09-2.33,1.85-3.31
				c0.76-0.98,1.62-1.77,2.57-2.37c0.95-0.6,1.9-0.9,2.84-0.9c0.69,0,1.28,0.09,1.77,0.26c0.49,0.17,0.88,0.36,1.18,0.57
				c0.35,0.25,0.62,0.52,0.83,0.8c0.25,0,0.53,0.03,0.81,0.09s0.56,0.15,0.8,0.28c0.24,0.13,0.45,0.29,0.61,0.5
				c0.16,0.21,0.24,0.46,0.24,0.76c0,0.25-0.1,0.67-0.31,1.25c-0.21,0.58-0.44,1.22-0.69,1.92c-0.25,0.71-0.49,1.43-0.69,2.18
				c-0.21,0.75-0.31,1.42-0.31,1.99c0,0.28,0.09,0.51,0.26,0.69c0.17,0.19,0.41,0.28,0.71,0.28c0.46,0,0.92-0.15,1.37-0.45
				c0.45-0.3,0.85-0.65,1.2-1.04c0.42-0.42,0.8-0.91,1.14-1.49c0.02-0.07,0.08-0.15,0.17-0.24c0.05-0.05,0.12-0.1,0.21-0.16
				c0.09-0.06,0.2-0.09,0.31-0.09c0.19,0,0.35,0.07,0.5,0.21s0.23,0.3,0.23,0.49c0,0.09-0.02,0.18-0.05,0.26
				c-0.04,0.08-0.08,0.17-0.12,0.26C348.67,22.32,348.63,22.42,348.58,22.54z M340.53,16.4c0-0.51-0.12-0.88-0.36-1.13
				c-0.24-0.24-0.54-0.36-0.88-0.36c-0.51,0-1.03,0.27-1.56,0.8c-0.53,0.53-1.01,1.18-1.44,1.96s-0.78,1.61-1.06,2.51
				s-0.42,1.71-0.42,2.43c0,1.04,0.33,1.56,1.01,1.56c0.42,0,0.9-0.28,1.44-0.83c0.54-0.55,1.06-1.24,1.54-2.05
				c0.49-0.81,0.9-1.66,1.23-2.55C340.37,17.85,340.53,17.07,340.53,16.4z"/>
			<path class="st0" d="M361.3,26.8c-0.65,0-1.24-0.12-1.77-0.36c-0.53-0.24-0.99-0.54-1.37-0.88c-0.38-0.35-0.68-0.72-0.9-1.11
				c-0.22-0.39-0.34-0.74-0.36-1.04c-0.55,0.65-1.14,1.21-1.77,1.7c-0.53,0.44-1.14,0.83-1.82,1.18c-0.68,0.35-1.38,0.52-2.1,0.52
				c-0.49,0-0.97-0.1-1.44-0.31c-0.47-0.21-0.9-0.5-1.27-0.87c-0.37-0.37-0.67-0.82-0.9-1.35c-0.23-0.53-0.35-1.11-0.35-1.73
				c0-1.41,0.28-2.71,0.83-3.9c0.55-1.19,1.25-2.21,2.08-3.05c0.83-0.84,1.73-1.5,2.69-1.98c0.96-0.47,1.84-0.71,2.65-0.71
				c0.32,0,0.62,0.03,0.9,0.09c0.28,0.06,0.51,0.12,0.69,0.19c0.23,0.09,0.43,0.18,0.59,0.28c0.39-1.41,0.87-2.79,1.42-4.13
				c0.55-1.34,1.16-2.53,1.82-3.57c0.66-1.04,1.36-1.87,2.1-2.5c0.74-0.62,1.51-0.94,2.32-0.94c0.35,0,0.7,0.09,1.06,0.28
				c0.36,0.18,0.68,0.43,0.97,0.73c0.29,0.3,0.53,0.65,0.71,1.04c0.18,0.39,0.28,0.79,0.28,1.18c0,0.42-0.11,0.94-0.33,1.56
				s-0.51,1.3-0.87,2.03c-0.36,0.73-0.76,1.49-1.21,2.27c-0.45,0.79-0.92,1.56-1.4,2.32c-1.11,1.78-2.38,3.67-3.81,5.69
				c-0.05,0.3-0.08,0.6-0.1,0.88c-0.02,0.29-0.04,0.57-0.04,0.85c0,0.97,0.15,1.77,0.45,2.39c0.3,0.62,0.77,0.94,1.42,0.94
				c0.46,0,0.91-0.15,1.35-0.45c0.44-0.3,0.83-0.65,1.18-1.04c0.42-0.42,0.8-0.91,1.14-1.49c0.02-0.07,0.08-0.15,0.17-0.24
				c0.05-0.05,0.12-0.1,0.21-0.16s0.2-0.09,0.31-0.09c0.18,0,0.35,0.07,0.5,0.21c0.15,0.14,0.22,0.3,0.22,0.49
				c0,0.09-0.02,0.18-0.05,0.26c-0.03,0.08-0.08,0.17-0.12,0.26c-0.05,0.09-0.09,0.2-0.14,0.31c-0.51,0.81-1.08,1.53-1.7,2.15
				c-0.53,0.53-1.16,1.02-1.89,1.46C362.95,26.58,362.16,26.8,361.3,26.8z M357.25,15.4c-0.09-0.09-0.19-0.18-0.28-0.28
				c-0.09-0.07-0.2-0.13-0.31-0.19c-0.12-0.06-0.24-0.09-0.38-0.09c-0.55,0-1.12,0.27-1.68,0.8c-0.57,0.53-1.08,1.18-1.53,1.96
				c-0.45,0.77-0.81,1.6-1.09,2.48c-0.28,0.88-0.42,1.68-0.42,2.39c0,0.62,0.12,1.11,0.35,1.46c0.23,0.35,0.54,0.52,0.94,0.52
				c0.37,0,0.77-0.14,1.21-0.43c0.44-0.29,0.86-0.62,1.25-0.99c0.44-0.42,0.89-0.9,1.35-1.46c0.02-1.04,0.09-2.06,0.19-3.07
				C356.95,17.49,357.09,16.46,357.25,15.4z M360.96,16.85c1.02-1.66,1.93-3.26,2.74-4.79c0.35-0.65,0.69-1.31,1.02-1.99
				c0.33-0.68,0.63-1.33,0.88-1.96c0.25-0.62,0.46-1.2,0.62-1.73c0.16-0.53,0.24-0.99,0.24-1.39s-0.16-0.59-0.49-0.59
				c-0.3,0-0.67,0.36-1.11,1.09c-0.44,0.73-0.9,1.68-1.39,2.86c-0.49,1.18-0.95,2.51-1.4,3.99
				C361.63,13.83,361.26,15.33,360.96,16.85z"/>
			<path class="st0" d="M382.7,22.54c-0.39,0.58-0.89,1.07-1.49,1.49c-0.51,0.39-1.14,0.74-1.89,1.04c-0.75,0.3-1.64,0.45-2.65,0.45
				c-0.42,0-0.87-0.03-1.35-0.1c-0.55,0.44-1.17,0.78-1.84,1.02c-0.67,0.24-1.38,0.36-2.12,0.36c-0.72,0-1.4-0.13-2.06-0.38
				c-0.66-0.25-1.24-0.6-1.73-1.04c-0.5-0.44-0.89-0.96-1.18-1.56c-0.29-0.6-0.43-1.24-0.43-1.91c0-1.46,0.25-2.74,0.75-3.87
				c0.5-1.12,1.14-2.06,1.92-2.83c0.79-0.76,1.65-1.34,2.6-1.73c0.95-0.39,1.87-0.59,2.77-0.59c0.72,0,1.39,0.12,2.01,0.35
				c0.62,0.23,1.16,0.57,1.61,1.02c0.45,0.45,0.81,0.99,1.08,1.63s0.4,1.35,0.4,2.13c0,0.92-0.19,1.9-0.57,2.91
				c-0.38,1.02-0.91,1.97-1.58,2.84c0.09,0.02,0.18,0.04,0.26,0.05c0.08,0.01,0.18,0.02,0.29,0.02c0.6,0,1.14-0.12,1.63-0.36
				c0.49-0.24,0.91-0.51,1.28-0.81c0.42-0.35,0.81-0.74,1.18-1.18c0.02-0.07,0.08-0.15,0.17-0.24c0.05-0.05,0.12-0.1,0.21-0.16
				c0.09-0.06,0.2-0.09,0.31-0.09c0.18,0,0.35,0.07,0.5,0.21s0.23,0.3,0.23,0.49c0,0.09-0.02,0.18-0.05,0.26
				c-0.03,0.08-0.08,0.17-0.12,0.26C382.79,22.32,382.74,22.42,382.7,22.54z M370.04,22.78c0,0.69,0.14,1.26,0.43,1.7
				c0.29,0.44,0.7,0.66,1.23,0.66c0.37,0,0.73-0.14,1.08-0.42c-0.39-0.25-0.59-0.53-0.59-0.83c0-0.18,0.06-0.38,0.19-0.59
				c0.13-0.21,0.28-0.39,0.47-0.55c0.18-0.16,0.38-0.29,0.57-0.4c0.2-0.1,0.36-0.16,0.5-0.16c0.12,0,0.24,0.02,0.38,0.07
				c0.35-0.88,0.61-1.81,0.8-2.79c0.18-0.98,0.28-1.85,0.28-2.62c0-0.79-0.13-1.35-0.38-1.68c-0.25-0.33-0.58-0.5-0.97-0.5
				c-0.39,0-0.82,0.2-1.28,0.61c-0.46,0.4-0.9,0.97-1.3,1.7c-0.41,0.73-0.74,1.58-1.01,2.57C370.17,20.52,370.04,21.6,370.04,22.78z
				"/>
			<path class="st0" d="M390.08,26.8c-0.6,0-1.15-0.09-1.65-0.28c-0.5-0.18-0.93-0.43-1.3-0.75c-0.37-0.31-0.66-0.68-0.87-1.09
				c-0.21-0.42-0.31-0.87-0.31-1.35c0-0.76,0.12-1.48,0.35-2.15c0.23-0.67,0.48-1.28,0.75-1.84c0.27-0.55,0.51-1.05,0.75-1.47
				c0.23-0.43,0.35-0.78,0.35-1.06c0-0.18-0.11-0.32-0.33-0.42c-0.22-0.09-0.46-0.17-0.71-0.24c-0.3-0.07-0.65-0.13-1.04-0.17
				c-0.67,1.69-1.31,3.07-1.91,4.14c-0.6,1.08-1.09,1.88-1.46,2.41c-0.05,0.07-0.13,0.17-0.26,0.31s-0.29,0.21-0.5,0.21
				c-0.19,0-0.35-0.07-0.5-0.23c-0.15-0.15-0.23-0.32-0.23-0.5c0-0.16,0.05-0.32,0.16-0.47c0.1-0.15,0.18-0.27,0.23-0.36
				c0.32-0.46,0.78-1.2,1.37-2.2c0.59-1.01,1.14-2.33,1.65-3.97c-0.23-0.16-0.43-0.37-0.59-0.62c-0.14-0.21-0.27-0.47-0.38-0.8
				c-0.12-0.32-0.17-0.71-0.17-1.14c0-0.35,0.06-0.68,0.19-0.99c0.13-0.31,0.29-0.58,0.5-0.81c0.21-0.23,0.43-0.42,0.66-0.55
				c0.23-0.14,0.45-0.21,0.66-0.21c0.23,0,0.47,0.06,0.73,0.19c0.25,0.13,0.49,0.28,0.69,0.45c0.21,0.17,0.38,0.37,0.52,0.59
				c0.14,0.22,0.21,0.41,0.21,0.57c0,0.46-0.08,0.84-0.22,1.14c-0.15,0.3-0.23,0.59-0.23,0.87c0,0.25,0.14,0.44,0.42,0.55
				c0.28,0.12,0.62,0.17,1.04,0.17c0.39,0,0.72-0.02,0.99-0.07c0.27-0.05,0.5-0.1,0.71-0.16c0.21-0.06,0.4-0.11,0.59-0.16
				c0.18-0.05,0.38-0.07,0.59-0.07c0.42,0,0.76,0.16,1.02,0.49c0.27,0.32,0.4,0.72,0.4,1.18c0,0.39-0.13,0.86-0.4,1.4
				c-0.27,0.54-0.56,1.14-0.88,1.79c-0.32,0.65-0.62,1.32-0.88,2.03c-0.27,0.71-0.4,1.4-0.4,2.1c0,0.39,0.1,0.69,0.29,0.9
				c0.2,0.21,0.43,0.31,0.71,0.31c0.21,0,0.42-0.06,0.62-0.17c0.21-0.12,0.4-0.24,0.59-0.38c0.21-0.16,0.42-0.36,0.62-0.59
				c0.09-0.12,0.2-0.22,0.31-0.33c0.12-0.1,0.25-0.16,0.42-0.16c0.18,0,0.36,0.08,0.52,0.24s0.24,0.33,0.24,0.52
				c0,0.14-0.07,0.3-0.21,0.49c-0.07,0.09-0.13,0.19-0.17,0.28c-0.37,0.46-0.77,0.87-1.21,1.21c-0.39,0.32-0.84,0.61-1.35,0.85
				C391.24,26.68,390.68,26.8,390.08,26.8z"/>
		</g>
	</g>
</g>
</svg>
